<?xml version="1.0" encoding="UTF-8" standalone="no"?>
<!DOCTYPE svg PUBLIC "-//W3C//DTD SVG 1.1//EN" "http://www.w3.org/Graphics/SVG/1.1/DTD/svg11.dtd">
<svg xmlns="http://www.w3.org/2000/svg" version="1.1" viewBox="0.00 0.00 580.00 386.00">
<g stroke-width="2.00" fill="none" stroke-linecap="butt">
<path stroke="#b89ca4" vector-effect="non-scaling-stroke" d="
  M 312.08 132.64
  C 316.51 129.16 320.82 124.93 323.54 119.72
  C 337.95 92.02 301.24 73.47 284.66 95.65
  Q 284.32 96.11 284.01 95.64
  C 272.90 79.42 244.56 84.34 242.14 104.91
  C 240.85 115.88 248.20 126.14 256.71 132.69
  Q 257.35 133.19 256.54 133.18
  Q 228.68 132.88 200.81 133.11
  C 188.38 133.21 182.44 140.67 182.50 152.25
  C 182.52 157.89 181.77 164.76 183.74 169.58
  Q 187.76 179.43 200.35 180.45
  A 0.71 0.70 -87.8 0 1 201.00 181.16
  Q 200.99 237.48 201.01 293.86
  C 201.01 298.42 203.47 300.13 207.96 300.16
  Q 245.52 300.39 283.07 300.13
  C 308.40 299.95 333.74 300.36 359.08 300.16
  C 364.63 300.12 367.77 299.64 367.76 293.11
  Q 367.74 275.35 367.75 257.59
  Q 367.75 257.12 368.15 256.88
  Q 370.14 255.70 371.79 254.04
  Q 382.88 242.83 394.06 231.72
  C 398.39 227.41 399.05 224.89 394.34 220.20
  Q 381.26 207.17 368.53 194.40
  A 2.70 2.70 0.0 0 1 367.75 192.50
  L 367.75 180.76
  Q 367.75 180.29 368.22 180.28
  C 380.59 180.02 386.17 172.43 386.44 161.06
  C 386.87 142.76 385.01 133.13 364.25 133.05
  Q 331.52 132.92 312.23 133.07
  Q 311.52 133.08 312.08 132.64"
/>
<path stroke="#b3687b" vector-effect="non-scaling-stroke" d="
  M 271.31 98.69
  Q 265.26 95.21 258.28 99.14
  C 250.22 103.67 253.19 113.18 258.19 118.58
  Q 266.09 127.12 277.99 131.04
  Q 278.42 131.18 278.43 130.73
  C 278.64 120.92 279.64 103.47 271.31 98.69"
/>
<path stroke="#b3687b" vector-effect="non-scaling-stroke" d="
  M 303.01 97.19
  C 288.48 96.95 290.09 121.82 290.30 130.75
  Q 290.31 131.27 290.80 131.10
  C 299.79 128.05 322.18 114.84 313.98 102.19
  C 311.65 98.60 307.14 97.26 303.01 97.19"
/>
<path stroke="#b89b97" vector-effect="non-scaling-stroke" d="
  M 375.17 150.05
  A 5.77 5.77 0.0 0 0 369.40 144.28
  L 199.52 144.28
  A 5.77 5.77 0.0 0 0 193.75 150.05
  L 193.75 163.05
  A 5.77 5.77 0.0 0 0 199.52 168.82
  L 369.40 168.82
  A 5.77 5.77 0.0 0 0 375.17 163.05
  L 375.17 150.05"
/>
<path stroke="#b3687b" vector-effect="non-scaling-stroke" d="
  M 355.10 247.84
  C 347.81 240.17 339.89 233.07 332.69 225.35
  C 329.54 221.98 331.43 205.55 331.60 200.50
  Q 331.66 198.87 329.91 197.08
  Q 321.74 188.73 313.34 180.59
  Q 313.02 180.28 312.56 180.27
  L 304.27 180.20
  Q 303.75 180.20 303.75 180.72
  L 303.75 288.50
  Q 303.75 289.00 304.25 289.00
  L 355.98 289.00
  A 0.54 0.53 90.0 0 0 356.51 288.46
  Q 356.46 272.17 356.53 255.77
  C 356.55 252.76 357.53 250.40 355.10 247.84"
/>
<path stroke="#b3687b" vector-effect="non-scaling-stroke" d="
  M 265.01 180.51
  A 0.26 0.26 0.0 0 0 264.75 180.25
  L 212.51 180.25
  A 0.26 0.26 0.0 0 0 212.25 180.51
  L 212.25 288.73
  A 0.26 0.26 0.0 0 0 212.51 288.99
  L 264.75 288.99
  A 0.26 0.26 0.0 0 0 265.01 288.73
  L 265.01 180.51"
/>
<path stroke="#b89b97" vector-effect="non-scaling-stroke" d="
  M 292.51 180.52
  A 0.27 0.27 0.0 0 0 292.24 180.25
  L 276.52 180.25
  A 0.27 0.27 0.0 0 0 276.25 180.52
  L 276.25 288.48
  A 0.27 0.27 0.0 0 0 276.52 288.75
  L 292.24 288.75
  A 0.27 0.27 0.0 0 0 292.51 288.48
  L 292.51 180.52"
/>
<path stroke="#b3687b" vector-effect="non-scaling-stroke" d="
  M 356.19 190.41
  A 0.33 0.33 0.0 0 0 356.51 190.08
  L 356.57 180.58
  A 0.33 0.33 0.0 0 0 356.24 180.25
  L 329.91 180.25
  A 0.33 0.33 0.0 0 0 329.67 180.81
  L 339.45 190.78
  A 0.33 0.33 0.0 0 0 339.69 190.88
  L 356.19 190.41"
/>
<path stroke="#b89b97" vector-effect="non-scaling-stroke" d="
  M 342.81 209.96
  A 0.14 0.14 0.0 0 0 342.57 210.05
  L 342.32 218.12
  A 2.36 2.36 0.0 0 0 343.02 219.89
  L 365.94 242.81
  A 0.79 0.79 0.0 0 0 367.06 242.81
  L 383.64 226.24
  A 0.56 0.56 0.0 0 0 383.64 225.46
  L 360.08 201.90
  A 1.13 1.12 66.1 0 0 359.24 201.57
  L 351.24 201.82
  A 0.35 0.35 0.0 0 0 351.03 202.44
  C 353.55 204.53 358.43 208.66 358.68 212.04
  C 358.91 215.04 356.78 217.36 353.92 217.99
  C 350.31 218.79 345.74 213.04 342.81 209.96"
/>
</g>
<path fill="#ffffff" d="
  M 0.00 0.00
  L 580.00 0.00
  L 580.00 386.00
  L 0.00 386.00
  L 0.00 0.00
  Z
  M 312.08 132.64
  C 316.51 129.16 320.82 124.93 323.54 119.72
  C 337.95 92.02 301.24 73.47 284.66 95.65
  Q 284.32 96.11 284.01 95.64
  C 272.90 79.42 244.56 84.34 242.14 104.91
  C 240.85 115.88 248.20 126.14 256.71 132.69
  Q 257.35 133.19 256.54 133.18
  Q 228.68 132.88 200.81 133.11
  C 188.38 133.21 182.44 140.67 182.50 152.25
  C 182.52 157.89 181.77 164.76 183.74 169.58
  Q 187.76 179.43 200.35 180.45
  A 0.71 0.70 -87.8 0 1 201.00 181.16
  Q 200.99 237.48 201.01 293.86
  C 201.01 298.42 203.47 300.13 207.96 300.16
  Q 245.52 300.39 283.07 300.13
  C 308.40 299.95 333.74 300.36 359.08 300.16
  C 364.63 300.12 367.77 299.64 367.76 293.11
  Q 367.74 275.35 367.75 257.59
  Q 367.75 257.12 368.15 256.88
  Q 370.14 255.70 371.79 254.04
  Q 382.88 242.83 394.06 231.72
  C 398.39 227.41 399.05 224.89 394.34 220.20
  Q 381.26 207.17 368.53 194.40
  A 2.70 2.70 0.0 0 1 367.75 192.50
  L 367.75 180.76
  Q 367.75 180.29 368.22 180.28
  C 380.59 180.02 386.17 172.43 386.44 161.06
  C 386.87 142.76 385.01 133.13 364.25 133.05
  Q 331.52 132.92 312.23 133.07
  Q 311.52 133.08 312.08 132.64
  Z"
/>
<path fill="#713948" d="
  M 312.23 133.07
  Q 331.52 132.92 364.25 133.05
  C 385.01 133.13 386.87 142.76 386.44 161.06
  C 386.17 172.43 380.59 180.02 368.22 180.28
  Q 367.75 180.29 367.75 180.76
  L 367.75 192.50
  A 2.70 2.70 0.0 0 0 368.53 194.40
  Q 381.26 207.17 394.34 220.20
  C 399.05 224.89 398.39 227.41 394.06 231.72
  Q 382.88 242.83 371.79 254.04
  Q 370.14 255.70 368.15 256.88
  Q 367.75 257.12 367.75 257.59
  Q 367.74 275.35 367.76 293.11
  C 367.77 299.64 364.63 300.12 359.08 300.16
  C 333.74 300.36 308.40 299.95 283.07 300.13
  Q 245.52 300.39 207.96 300.16
  C 203.47 300.13 201.01 298.42 201.01 293.86
  Q 200.99 237.48 201.00 181.16
  A 0.71 0.70 -87.8 0 0 200.35 180.45
  Q 187.76 179.43 183.74 169.58
  C 181.77 164.76 182.52 157.89 182.50 152.25
  C 182.44 140.67 188.38 133.21 200.81 133.11
  Q 228.68 132.88 256.54 133.18
  Q 257.35 133.19 256.71 132.69
  C 248.20 126.14 240.85 115.88 242.14 104.91
  C 244.56 84.34 272.90 79.42 284.01 95.64
  Q 284.32 96.11 284.66 95.65
  C 301.24 73.47 337.95 92.02 323.54 119.72
  C 320.82 124.93 316.51 129.16 312.08 132.64
  Q 311.52 133.08 312.23 133.07
  Z
  M 271.31 98.69
  Q 265.26 95.21 258.28 99.14
  C 250.22 103.67 253.19 113.18 258.19 118.58
  Q 266.09 127.12 277.99 131.04
  Q 278.42 131.18 278.43 130.73
  C 278.64 120.92 279.64 103.47 271.31 98.69
  Z
  M 303.01 97.19
  C 288.48 96.95 290.09 121.82 290.30 130.75
  Q 290.31 131.27 290.80 131.10
  C 299.79 128.05 322.18 114.84 313.98 102.19
  C 311.65 98.60 307.14 97.26 303.01 97.19
  Z
  M 375.17 150.05
  A 5.77 5.77 0.0 0 0 369.40 144.28
  L 199.52 144.28
  A 5.77 5.77 0.0 0 0 193.75 150.05
  L 193.75 163.05
  A 5.77 5.77 0.0 0 0 199.52 168.82
  L 369.40 168.82
  A 5.77 5.77 0.0 0 0 375.17 163.05
  L 375.17 150.05
  Z
  M 355.10 247.84
  C 347.81 240.17 339.89 233.07 332.69 225.35
  C 329.54 221.98 331.43 205.55 331.60 200.50
  Q 331.66 198.87 329.91 197.08
  Q 321.74 188.73 313.34 180.59
  Q 313.02 180.28 312.56 180.27
  L 304.27 180.20
  Q 303.75 180.20 303.75 180.72
  L 303.75 288.50
  Q 303.75 289.00 304.25 289.00
  L 355.98 289.00
  A 0.54 0.53 90.0 0 0 356.51 288.46
  Q 356.46 272.17 356.53 255.77
  C 356.55 252.76 357.53 250.40 355.10 247.84
  Z
  M 265.01 180.51
  A 0.26 0.26 0.0 0 0 264.75 180.25
  L 212.51 180.25
  A 0.26 0.26 0.0 0 0 212.25 180.51
  L 212.25 288.73
  A 0.26 0.26 0.0 0 0 212.51 288.99
  L 264.75 288.99
  A 0.26 0.26 0.0 0 0 265.01 288.73
  L 265.01 180.51
  Z
  M 292.51 180.52
  A 0.27 0.27 0.0 0 0 292.24 180.25
  L 276.52 180.25
  A 0.27 0.27 0.0 0 0 276.25 180.52
  L 276.25 288.48
  A 0.27 0.27 0.0 0 0 276.52 288.75
  L 292.24 288.75
  A 0.27 0.27 0.0 0 0 292.51 288.48
  L 292.51 180.52
  Z
  M 356.19 190.41
  A 0.33 0.33 0.0 0 0 356.51 190.08
  L 356.57 180.58
  A 0.33 0.33 0.0 0 0 356.24 180.25
  L 329.91 180.25
  A 0.33 0.33 0.0 0 0 329.67 180.81
  L 339.45 190.78
  A 0.33 0.33 0.0 0 0 339.69 190.88
  L 356.19 190.41
  Z
  M 342.81 209.96
  A 0.14 0.14 0.0 0 0 342.57 210.05
  L 342.32 218.12
  A 2.36 2.36 0.0 0 0 343.02 219.89
  L 365.94 242.81
  A 0.79 0.79 0.0 0 0 367.06 242.81
  L 383.64 226.24
  A 0.56 0.56 0.0 0 0 383.64 225.46
  L 360.08 201.90
  A 1.13 1.12 66.1 0 0 359.24 201.57
  L 351.24 201.82
  A 0.35 0.35 0.0 0 0 351.03 202.44
  C 353.55 204.53 358.43 208.66 358.68 212.04
  C 358.91 215.04 356.78 217.36 353.92 217.99
  C 350.31 218.79 345.74 213.04 342.81 209.96
  Z"
/>
<path fill="#f496ae" d="
  M 271.31 98.69
  C 279.64 103.47 278.64 120.92 278.43 130.73
  Q 278.42 131.18 277.99 131.04
  Q 266.09 127.12 258.19 118.58
  C 253.19 113.18 250.22 103.67 258.28 99.14
  Q 265.26 95.21 271.31 98.69
  Z"
/>
<path fill="#f496ae" d="
  M 290.30 130.75
  C 290.09 121.82 288.48 96.95 303.01 97.19
  C 307.14 97.26 311.65 98.60 313.98 102.19
  C 322.18 114.84 299.79 128.05 290.80 131.10
  Q 290.31 131.27 290.30 130.75
  Z"
/>
<rect fill="#fffde6" x="193.75" y="144.28" width="181.42" height="24.54" rx="5.77"/>
<path fill="#f496ae" d="
  M 332.69 225.35
  C 339.89 233.07 347.81 240.17 355.10 247.84
  C 357.53 250.40 356.55 252.76 356.53 255.77
  Q 356.46 272.17 356.51 288.46
  A 0.54 0.53 -90.0 0 1 355.98 289.00
  L 304.25 289.00
  Q 303.75 289.00 303.75 288.50
  L 303.75 180.72
  Q 303.75 180.20 304.27 180.20
  L 312.56 180.27
  Q 313.02 180.28 313.34 180.59
  Q 321.74 188.73 329.91 197.08
  Q 331.66 198.87 331.60 200.50
  C 331.43 205.55 329.54 221.98 332.69 225.35
  Z"
/>
<rect fill="#f496ae" x="212.25" y="180.25" width="52.76" height="108.74" rx="0.26"/>
<rect fill="#fffde6" x="276.25" y="180.25" width="16.26" height="108.50" rx="0.27"/>
<path fill="#f496ae" d="
  M 356.19 190.41
  L 339.69 190.88
  A 0.33 0.33 0.0 0 1 339.45 190.78
  L 329.67 180.81
  A 0.33 0.33 0.0 0 1 329.91 180.25
  L 356.24 180.25
  A 0.33 0.33 0.0 0 1 356.57 180.58
  L 356.51 190.08
  A 0.33 0.33 0.0 0 1 356.19 190.41
  Z"
/>
<path fill="#fffde6" d="
  M 342.81 209.96
  C 345.74 213.04 350.31 218.79 353.92 217.99
  C 356.78 217.36 358.91 215.04 358.68 212.04
  C 358.43 208.66 353.55 204.53 351.03 202.44
  A 0.35 0.35 0.0 0 1 351.24 201.82
  L 359.24 201.57
  A 1.13 1.12 66.1 0 1 360.08 201.90
  L 383.64 225.46
  A 0.56 0.56 0.0 0 1 383.64 226.24
  L 367.06 242.81
  A 0.79 0.79 0.0 0 1 365.94 242.81
  L 343.02 219.89
  A 2.36 2.36 0.0 0 1 342.32 218.12
  L 342.57 210.05
  A 0.14 0.14 0.0 0 1 342.81 209.96
  Z"
/>
</svg>
