<?xml version="1.0" encoding="UTF-8" standalone="no"?>
<!DOCTYPE svg PUBLIC "-//W3C//DTD SVG 1.1//EN" "http://www.w3.org/Graphics/SVG/1.1/DTD/svg11.dtd">
<svg xmlns="http://www.w3.org/2000/svg" version="1.1" viewBox="0.00 0.00 334.00 200.00">
<g stroke-width="2.00" fill="none" stroke-linecap="butt">
<path stroke="#cecece" vector-effect="non-scaling-stroke" d="
  M 128.34 53.45
  L 126.02 57.07
  Q 125.97 57.15 126.00 57.24
  Q 126.05 57.39 126.10 57.54
  A 0.14 0.13 -36.6 0 0 126.34 57.57
  C 128.96 53.80 133.94 51.94 136.99 49.31
  Q 137.58 48.79 138.12 49.38
  L 148.48 60.75
  Q 148.85 61.16 149.16 60.71
  L 174.49 23.72
  A 0.29 0.29 0.0 0 0 174.23 23.26
  C 170.91 23.50 168.72 25.76 166.17 26.71
  Q 147.79 33.59 129.69 41.31
  Q 129.26 41.49 128.95 41.14
  L 119.87 31.02
  A 0.48 0.48 0.0 0 1 120.17 30.23
  L 169.24 24.46
  Q 169.73 24.40 169.39 24.05
  Q 169.21 23.87 168.95 23.90
  Q 143.76 26.52 118.67 29.61
  A 0.42 0.42 0.0 0 0 118.41 30.31
  L 128.49 41.83
  Q 128.82 42.21 128.79 42.71
  Q 128.50 47.70 127.78 51.50
  Q 127.57 52.57 128.34 53.45"
/>
<path stroke="#cecece" vector-effect="non-scaling-stroke" d="
  M 128.34 53.45
  Q 133.09 52.53 136.51 48.77
  Q 136.89 48.36 136.58 47.89
  L 135.28 45.90
  A 0.59 0.59 0.0 0 0 134.30 45.90
  L 130.67 51.51
  Q 130.44 51.87 130.24 51.48
  Q 130.15 51.31 130.29 51.13
  C 132.43 48.46 133.17 45.45 134.78 44.53
  Q 147.29 37.43 160.02 30.74
  Q 160.82 30.32 161.15 29.63
  Q 161.41 29.10 160.86 29.32
  L 129.91 41.98
  Q 129.50 42.14 129.45 42.58
  L 128.34 53.45"
/>
<path stroke="#cecece" vector-effect="non-scaling-stroke" d="
  M 311.06 33.90
  Q 310.23 34.51 309.55 35.31
  Q 297.21 49.89 285.16 64.80
  Q 284.66 65.42 285.43 65.59
  L 297.66 68.34
  Q 298.27 68.48 298.51 69.05
  L 303.52 80.64
  A 0.27 0.26 32.3 0 0 304.03 80.53
  L 303.90 77.81
  A 0.69 0.68 68.9 0 1 304.15 77.24
  L 309.80 72.62
  A 3.53 3.51 31.5 0 1 312.79 71.91
  L 324.13 74.41
  Q 324.84 74.57 324.66 73.86
  L 313.95 31.12
  A 0.48 0.48 0.0 0 0 313.07 30.99
  L 311.77 33.12
  Q 311.49 33.58 311.06 33.90"
/>
<path stroke="#cecece" vector-effect="non-scaling-stroke" d="
  M 262.01 38.25
  L 260.60 39.72
  A 0.37 0.37 0.0 0 0 261.12 40.25
  Q 261.89 39.54 262.57 38.76
  A 0.38 0.38 0.0 0 0 262.01 38.25"
/>
<path stroke="#cecece" vector-effect="non-scaling-stroke" d="
  M 84.30 44.45
  Q 86.50 43.46 88.91 43.78
  Q 89.17 43.81 89.23 43.56
  Q 89.36 42.99 89.05 43.21
  Q 85.73 42.02 83.99 44.03
  Q 83.22 44.93 84.30 44.45"
/>
<path stroke="#cecece" vector-effect="non-scaling-stroke" d="
  M 256.8791 43.8587
  A 3.00 0.48 -36.9 0 0 254.1918 45.2762
  A 3.00 0.48 -36.9 0 0 252.0809 47.4613
  A 3.00 0.48 -36.9 0 0 254.7682 46.0438
  A 3.00 0.48 -36.9 0 0 256.8791 43.8587"
/>
<path stroke="#cecece" vector-effect="non-scaling-stroke" d="
  M 92.46 53.71
  L 93.24 53.74
  A 0.20 0.20 0.0 0 0 93.45 53.55
  L 93.45 53.43
  A 5.62 0.44 -87.7 0 0 93.24 47.80
  L 92.94 47.79
  A 5.62 0.44 -87.7 0 0 92.27 53.38
  L 92.27 53.50
  A 0.20 0.20 0.0 0 0 92.46 53.71"
/>
<path stroke="#cecece" vector-effect="non-scaling-stroke" d="
  M 88.8788 54.9431
  A 3.30 0.39 49.6 0 0 87.0370 52.1772
  A 3.30 0.39 49.6 0 0 84.6012 49.9169
  A 3.30 0.39 49.6 0 0 86.4430 52.6828
  A 3.30 0.39 49.6 0 0 88.8788 54.9431"
/>
<path stroke="#cecece" vector-effect="non-scaling-stroke" d="
  M 247.4964 50.5810
  A 2.77 0.50 -34.0 0 0 244.9204 51.7155
  A 2.77 0.50 -34.0 0 0 242.9036 53.6790
  A 2.77 0.50 -34.0 0 0 245.4796 52.5445
  A 2.77 0.50 -34.0 0 0 247.4964 50.5810"
/>
<path stroke="#cecece" vector-effect="non-scaling-stroke" d="
  M 238.2292 56.9038
  A 2.86 0.48 -27.4 0 0 235.4691 57.7938
  A 2.86 0.48 -27.4 0 0 233.1508 59.5362
  A 2.86 0.48 -27.4 0 0 235.9109 58.6462
  A 2.86 0.48 -27.4 0 0 238.2292 56.9038"
/>
<path stroke="#cecece" vector-effect="non-scaling-stroke" d="
  M 99.8501 59.1719
  A 3.24 0.39 16.9 0 0 96.8634 57.8568
  A 3.24 0.39 16.9 0 0 93.6499 57.2881
  A 3.24 0.39 16.9 0 0 96.6366 58.6032
  A 3.24 0.39 16.9 0 0 99.8501 59.1719"
/>
<path stroke="#cecece" vector-effect="non-scaling-stroke" d="
  M 86.1017 63.2233
  A 3.04 0.34 131.6 0 0 88.3743 61.1757
  A 3.04 0.34 131.6 0 0 90.1383 58.6767
  A 3.04 0.34 131.6 0 0 87.8657 60.7243
  A 3.04 0.34 131.6 0 0 86.1017 63.2233"
/>
<path stroke="#cecece" vector-effect="non-scaling-stroke" d="
  M 111.1001 61.6168
  A 3.24 0.44 9.0 0 0 107.9688 60.6754
  A 3.24 0.44 9.0 0 0 104.6999 60.6032
  A 3.24 0.44 9.0 0 0 107.8312 61.5446
  A 3.24 0.44 9.0 0 0 111.1001 61.6168"
/>
<path stroke="#cecece" vector-effect="non-scaling-stroke" d="
  M 117.05 62.50
  Q 119.70 62.63 122.03 61.43
  A 0.33 0.33 0.0 0 0 121.79 60.81
  L 117.01 62.12
  A 0.19 0.19 0.0 0 0 117.05 62.50"
/>
<path stroke="#cecece" vector-effect="non-scaling-stroke" d="
  M 228.2681 61.4315
  A 2.95 0.49 -15.1 0 0 225.2924 61.7269
  A 2.95 0.49 -15.1 0 0 222.5719 62.9685
  A 2.95 0.49 -15.1 0 0 225.5476 62.6731
  A 2.95 0.49 -15.1 0 0 228.2681 61.4315"
/>
<path stroke="#cecece" vector-effect="non-scaling-stroke" d="
  M 216.9483 64.1278
  A 2.73 0.46 -5.3 0 0 214.1875 63.9220
  A 2.73 0.46 -5.3 0 0 211.5117 64.6322
  A 2.73 0.46 -5.3 0 0 214.2725 64.8380
  A 2.73 0.46 -5.3 0 0 216.9483 64.1278"
/>
<path stroke="#cecece" vector-effect="non-scaling-stroke" d="
  M 206.0044 65.3228
  A 3.04 0.46 -5.8 0 0 202.9335 65.1724
  A 3.04 0.46 -5.8 0 0 199.9556 65.9372
  A 3.04 0.46 -5.8 0 0 203.0265 66.0876
  A 3.04 0.46 -5.8 0 0 206.0044 65.3228"
/>
<path stroke="#cecece" vector-effect="non-scaling-stroke" d="
  M 194.7006 66.4851
  A 3.01 0.41 -11.4 0 0 191.6690 66.6781
  A 3.01 0.41 -11.4 0 0 188.7994 67.6749
  A 3.01 0.41 -11.4 0 0 191.8310 67.4819
  A 3.01 0.41 -11.4 0 0 194.7006 66.4851"
/>
<path stroke="#cecece" vector-effect="non-scaling-stroke" d="
  M 81.4270 66.6494
  A 2.91 0.49 -28.1 0 0 78.6292 67.5878
  A 2.91 0.49 -28.1 0 0 76.2930 69.3906
  A 2.91 0.49 -28.1 0 0 79.0908 68.4522
  A 2.91 0.49 -28.1 0 0 81.4270 66.6494"
/>
<path stroke="#cecece" vector-effect="non-scaling-stroke" d="
  M 35.27 67.96
  C 33.69 67.61 32.46 67.08 30.78 67.02
  Q 30.61 67.01 30.50 67.13
  Q 30.40 67.23 30.30 67.32
  A 0.09 0.09 0.0 0 0 30.34 67.47
  L 35.35 68.58
  A 0.25 0.25 0.0 0 0 35.62 68.22
  Q 35.52 68.01 35.27 67.96"
/>
<path stroke="#cecece" vector-effect="non-scaling-stroke" d="
  M 184.1903 68.8825
  A 3.23 0.44 -33.6 0 0 181.2565 70.3035
  A 3.23 0.44 -33.6 0 0 178.8097 72.4575
  A 3.23 0.44 -33.6 0 0 181.7435 71.0365
  A 3.23 0.44 -33.6 0 0 184.1903 68.8825"
/>
<path stroke="#cecece" vector-effect="non-scaling-stroke" d="
  M 71.0085 71.7084
  A 2.95 0.50 -21.3 0 0 68.0784 72.3142
  A 2.95 0.50 -21.3 0 0 65.5115 73.8516
  A 2.95 0.50 -21.3 0 0 68.4416 73.2458
  A 2.95 0.50 -21.3 0 0 71.0085 71.7084"
/>
<path stroke="#cecece" vector-effect="non-scaling-stroke" d="
  M 39.99 74.96
  L 39.79 78.29
  A 0.21 0.21 0.0 0 0 40.21 78.35
  Q 40.91 75.40 40.04 72.52
  A 0.27 0.27 0.0 0 0 39.51 72.61
  Q 39.55 73.61 39.93 74.60
  A 0.92 0.78 40.3 0 1 39.99 74.96"
/>
<path stroke="#cecece" vector-effect="non-scaling-stroke" d="
  M 37.2142 74.8272
  A 3.15 0.32 17.5 0 0 34.3062 73.5748
  A 3.15 0.32 17.5 0 0 31.2058 72.9328
  A 3.15 0.32 17.5 0 0 34.1138 74.1852
  A 3.15 0.32 17.5 0 0 37.2142 74.8272"
/>
<path stroke="#cecece" vector-effect="non-scaling-stroke" d="
  M 59.8742 75.6357
  A 2.88 0.49 -11.3 0 0 56.9540 75.7195
  A 2.88 0.49 -11.3 0 0 54.2258 76.7643
  A 2.88 0.49 -11.3 0 0 57.1460 76.6805
  A 2.88 0.49 -11.3 0 0 59.8742 75.6357"
/>
<path stroke="#cecece" vector-effect="non-scaling-stroke" d="
  M 48.7801 76.7998
  A 3.09 0.29 6.5 0 0 45.7428 76.1619
  A 3.09 0.29 6.5 0 0 42.6399 76.1002
  A 3.09 0.29 6.5 0 0 45.6772 76.7381
  A 3.09 0.29 6.5 0 0 48.7801 76.7998"
/>
<path stroke="#cecece" vector-effect="non-scaling-stroke" d="
  M 172.9154 82.3039
  A 3.22 0.50 113.9 0 0 174.6771 79.5626
  A 3.22 0.50 113.9 0 0 175.5246 76.4161
  A 3.22 0.50 113.9 0 0 173.7629 79.1574
  A 3.22 0.50 113.9 0 0 172.9154 82.3039"
/>
<path stroke="#cecece" vector-effect="non-scaling-stroke" d="
  M 38.30 83.74
  L 35.74 88.23
  A 0.24 0.24 0.0 0 0 36.14 88.50
  Q 37.78 86.40 38.56 83.85
  A 0.14 0.14 0.0 0 0 38.30 83.74"
/>
<path stroke="#cecece" vector-effect="non-scaling-stroke" d="
  M 170.75 86.58
  L 170.26 85.21
  Q 170.06 84.65 169.46 84.60
  L 157.13 83.39
  Q 156.59 83.34 156.45 83.86
  L 149.29 111.67
  A 0.34 0.34 0.0 0 0 149.77 112.06
  L 196.93 88.01
  A 0.32 0.32 0.0 0 0 196.81 87.41
  Q 187.71 86.77 178.51 85.42
  Q 175.08 84.91 173.65 86.96
  A 1.65 1.65 0.0 0 1 170.75 86.58"
/>
<path stroke="#cecece" vector-effect="non-scaling-stroke" d="
  M 305.6006 92.6221
  A 3.39 0.48 86.1 0 0 305.8489 89.2074
  A 3.39 0.48 86.1 0 0 305.1394 85.8579
  A 3.39 0.48 86.1 0 0 304.8911 89.2726
  A 3.39 0.48 86.1 0 0 305.6006 92.6221"
/>
<path stroke="#cecece" vector-effect="non-scaling-stroke" d="
  M 31.6024 92.8348
  A 3.05 0.42 -26.8 0 0 28.6906 93.8351
  A 3.05 0.42 -26.8 0 0 26.1576 95.5852
  A 3.05 0.42 -26.8 0 0 29.0694 94.5849
  A 3.05 0.42 -26.8 0 0 31.6024 92.8348"
/>
<path stroke="#cecece" vector-effect="non-scaling-stroke" d="
  M 21.1348 97.4350
  A 3.36 0.48 -8.3 0 0 17.7407 97.4450
  A 3.36 0.48 -8.3 0 0 14.4852 98.4050
  A 3.36 0.48 -8.3 0 0 17.8793 98.3950
  A 3.36 0.48 -8.3 0 0 21.1348 97.4350"
/>
<path stroke="#cecece" vector-effect="non-scaling-stroke" d="
  M 9.3195 98.8270
  A 1.70 0.60 -8.9 0 0 7.5472 98.4972
  A 1.70 0.60 -8.9 0 0 5.9605 99.3530
  A 1.70 0.60 -8.9 0 0 7.7328 99.6828
  A 1.70 0.60 -8.9 0 0 9.3195 98.8270"
/>
<path stroke="#cecece" vector-effect="non-scaling-stroke" d="
  M 305.6900 99.0869
  A 0.36 0.36 0.0 0 0 305.4773 98.6243
  L 305.3460 98.5758
  A 0.36 0.36 0.0 0 0 304.8834 98.7885
  L 303.0100 103.8531
  A 0.36 0.36 0.0 0 0 303.2227 104.3157
  L 303.3540 104.3642
  A 0.36 0.36 0.0 0 0 303.8166 104.1515
  L 305.6900 99.0869"
/>
<path stroke="#cecece" vector-effect="non-scaling-stroke" d="
  M 299.6223 108.8128
  A 0.26 0.26 0.0 0 0 299.2584 108.7603
  L 294.9345 111.9950
  A 0.26 0.26 0.0 0 0 294.8820 112.3590
  L 295.0977 112.6472
  A 0.26 0.26 0.0 0 0 295.4616 112.6997
  L 299.7855 109.4650
  A 0.26 0.26 0.0 0 0 299.8380 109.1010
  L 299.6223 108.8128"
/>
<path stroke="#cecece" vector-effect="non-scaling-stroke" d="
  M 289.2223 114.9399
  A 3.08 0.54 -10.1 0 0 286.0953 114.9484
  A 3.08 0.54 -10.1 0 0 283.1577 116.0201
  A 3.08 0.54 -10.1 0 0 286.2847 116.0116
  A 3.08 0.54 -10.1 0 0 289.2223 114.9399"
/>
<path stroke="#cecece" vector-effect="non-scaling-stroke" d="
  M 264.8670 116.4071
  A 2.93 0.51 -2.6 0 0 261.9169 116.0305
  A 2.93 0.51 -2.6 0 0 259.0130 116.6729
  A 2.93 0.51 -2.6 0 0 261.9631 117.0495
  A 2.93 0.51 -2.6 0 0 264.8670 116.4071"
/>
<path stroke="#cecece" vector-effect="non-scaling-stroke" d="
  M 277.1996 116.4342
  A 0.46 0.46 0.0 0 0 276.7356 115.9782
  L 271.7358 116.0218
  A 0.46 0.46 0.0 0 0 271.2799 116.4858
  L 271.2804 116.5458
  A 0.46 0.46 0.0 0 0 271.7444 117.0018
  L 276.7442 116.9582
  A 0.46 0.46 0.0 0 0 277.2001 116.4942
  L 277.1996 116.4342"
/>
<path stroke="#cecece" vector-effect="non-scaling-stroke" d="
  M 252.8997 117.1248
  A 2.94 0.49 -9.5 0 0 249.9191 117.1267
  A 2.94 0.49 -9.5 0 0 247.1003 118.0952
  A 2.94 0.49 -9.5 0 0 250.0809 118.0933
  A 2.94 0.49 -9.5 0 0 252.8997 117.1248"
/>
<path stroke="#cecece" vector-effect="non-scaling-stroke" d="
  M 240.8958 119.8224
  A 0.36 0.36 0.0 0 0 240.4238 119.6317
  L 235.9133 121.5462
  A 0.36 0.36 0.0 0 0 235.7226 122.0183
  L 235.8242 122.2576
  A 0.36 0.36 0.0 0 0 236.2962 122.4483
  L 240.8067 120.5338
  A 0.36 0.36 0.0 0 0 240.9974 120.0617
  L 240.8958 119.8224"
/>
<path stroke="#cecece" vector-effect="non-scaling-stroke" d="
  M 230.5774 125.4466
  A 1.70 0.50 -32.9 0 0 228.8784 125.9502
  A 1.70 0.50 -32.9 0 0 227.7226 127.2934
  A 1.70 0.50 -32.9 0 0 229.4216 126.7898
  A 1.70 0.50 -32.9 0 0 230.5774 125.4466"
/>
<path stroke="#cecece" vector-effect="non-scaling-stroke" d="
  M 166.74 138.13
  Q 169.61 138.63 172.22 138.11
  A 0.18 0.18 0.0 0 0 172.19 137.76
  L 166.77 137.75
  A 0.19 0.19 0.0 0 0 166.74 138.13"
/>
<path stroke="#cecece" vector-effect="non-scaling-stroke" d="
  M 160.9847 138.6173
  A 3.04 0.30 -9.9 0 0 157.9384 138.8445
  A 3.04 0.30 -9.9 0 0 154.9953 139.6627
  A 3.04 0.30 -9.9 0 0 158.0416 139.4355
  A 3.04 0.30 -9.9 0 0 160.9847 138.6173"
/>
<path stroke="#cecece" vector-effect="non-scaling-stroke" d="
  M 183.1217 141.2078
  A 3.13 0.41 22.5 0 0 180.3869 139.6312
  A 3.13 0.41 22.5 0 0 177.3383 138.8122
  A 3.13 0.41 22.5 0 0 180.0731 140.3888
  A 3.13 0.41 22.5 0 0 183.1217 141.2078"
/>
<path stroke="#cecece" vector-effect="non-scaling-stroke" d="
  M 150.1235 141.0513
  A 3.03 0.39 -14.5 0 0 147.0924 141.4324
  A 3.03 0.39 -14.5 0 0 144.2565 142.5687
  A 3.03 0.39 -14.5 0 0 147.2876 142.1876
  A 3.03 0.39 -14.5 0 0 150.1235 141.0513"
/>
<path stroke="#cecece" vector-effect="non-scaling-stroke" d="
  M 138.7643 144.6127
  A 2.99 0.44 -20.3 0 0 135.8073 145.2373
  A 2.99 0.44 -20.3 0 0 133.1557 146.6873
  A 2.99 0.44 -20.3 0 0 136.1127 146.0627
  A 2.99 0.44 -20.3 0 0 138.7643 144.6127"
/>
<path stroke="#cecece" vector-effect="non-scaling-stroke" d="
  M 188.98 147.54
  Q 189.49 148.62 190.31 149.49
  Q 190.99 150.22 190.63 149.29
  Q 189.71 146.91 187.97 145.05
  A 0.44 0.44 0.0 0 0 187.31 145.62
  Q 187.76 146.20 188.32 146.68
  A 2.64 2.62 -82.7 0 1 188.98 147.54"
/>
<path stroke="#cecece" vector-effect="non-scaling-stroke" d="
  M 128.0495 148.8495
  A 2.98 0.46 -24.6 0 0 125.1485 149.6718
  A 2.98 0.46 -24.6 0 0 122.6305 151.3305
  A 2.98 0.46 -24.6 0 0 125.5315 150.5082
  A 2.98 0.46 -24.6 0 0 128.0495 148.8495"
/>
<path stroke="#cecece" vector-effect="non-scaling-stroke" d="
  M 198.2652 150.2979
  A 3.29 0.41 3.1 0 0 195.0022 149.7106
  A 3.29 0.41 3.1 0 0 191.6948 149.9421
  A 3.29 0.41 3.1 0 0 194.9578 150.5294
  A 3.29 0.41 3.1 0 0 198.2652 150.2979"
/>
<path stroke="#cecece" vector-effect="non-scaling-stroke" d="
  M 181.44 151.33
  C 182.43 151.08 185.82 150.89 186.27 150.65
  Q 186.39 150.58 186.49 150.50
  Q 186.75 150.30 186.42 150.27
  Q 183.45 150.02 180.65 150.99
  A 0.26 0.25 -47.7 0 0 180.67 151.48
  Q 180.98 151.55 181.21 151.43
  Q 181.32 151.36 181.44 151.33"
/>
<path stroke="#cecece" vector-effect="non-scaling-stroke" d="
  M 209.3432 152.7470
  A 3.13 0.51 15.7 0 0 206.4680 151.4090
  A 3.13 0.51 15.7 0 0 203.3168 151.0530
  A 3.13 0.51 15.7 0 0 206.1920 152.3910
  A 3.13 0.51 15.7 0 0 209.3432 152.7470"
/>
<path stroke="#cecece" vector-effect="non-scaling-stroke" d="
  M 175.5102 153.0386
  A 2.85 0.24 -25.6 0 0 172.8363 154.0536
  A 2.85 0.24 -25.6 0 0 170.3698 155.5014
  A 2.85 0.24 -25.6 0 0 173.0437 154.4864
  A 2.85 0.24 -25.6 0 0 175.5102 153.0386"
/>
<path stroke="#cecece" vector-effect="non-scaling-stroke" d="
  M 117.6663 153.5973
  A 3.04 0.53 -23.1 0 0 114.6621 154.3025
  A 3.04 0.53 -23.1 0 0 112.0737 155.9827
  A 3.04 0.53 -23.1 0 0 115.0779 155.2775
  A 3.04 0.53 -23.1 0 0 117.6663 153.5973"
/>
<path stroke="#cecece" vector-effect="non-scaling-stroke" d="
  M 219.9740 156.2415
  A 3.02 0.53 21.8 0 0 217.3668 154.6279
  A 3.02 0.53 21.8 0 0 214.3660 153.9985
  A 3.02 0.53 21.8 0 0 216.9732 155.6121
  A 3.02 0.53 21.8 0 0 219.9740 156.2415"
/>
<path stroke="#cecece" vector-effect="non-scaling-stroke" d="
  M 238.45 166.42
  Q 236.95 165.61 235.66 164.56
  Q 235.50 164.43 235.36 164.42
  Q 235.14 164.41 234.95 164.54
  A 0.32 0.32 0.0 0 0 234.94 165.06
  L 236.70 166.43
  Q 237.33 166.92 236.64 167.32
  L 233.73 169.00
  A 0.40 0.40 0.0 0 0 233.90 169.75
  Q 239.86 170.17 245.76 170.56
  Q 246.14 170.58 245.74 171.48
  L 243.67 172.44
  Q 243.28 172.62 243.60 172.91
  L 245.16 174.30
  Q 245.56 174.66 246.09 174.62
  L 289.45 171.54
  A 0.21 0.21 0.0 0 0 289.56 171.16
  C 285.50 168.39 280.55 168.33 277.15 167.40
  Q 263.21 163.62 249.34 159.57
  A 0.26 0.26 0.0 0 0 249.16 160.05
  L 249.92 160.40
  A 0.13 0.12 -80.3 0 1 250.00 160.52
  Q 250.00 160.65 250.00 160.78
  A 0.42 0.42 0.0 0 1 249.51 161.19
  L 247.42 160.80
  A 0.61 0.60 -60.8 0 1 247.13 159.76
  L 252.70 154.66
  A 1.16 1.15 -53.1 0 1 253.98 154.47
  L 279.56 166.93
  Q 279.98 167.14 279.98 166.66
  Q 279.97 166.37 279.71 166.24
  Q 266.76 160.19 253.90 153.75
  A 0.91 0.91 0.0 0 0 252.98 153.81
  C 249.82 156.05 247.26 159.01 244.21 161.14
  C 242.88 162.06 238.72 164.63 238.45 166.42"
/>
<path stroke="#cecece" vector-effect="non-scaling-stroke" d="
  M 245.74 171.48
  L 245.56 172.43
  A 1.28 1.28 0.0 0 0 246.92 173.94
  L 268.50 172.31
  A 0.57 0.53 78.5 0 0 268.95 171.57
  Q 268.91 171.45 268.68 171.29
  Q 268.52 171.18 268.31 171.16
  Q 257.79 170.49 247.23 170.51
  A 1.23 1.23 0.0 0 0 246.36 170.87
  L 245.74 171.48"
/>
<path stroke="#cecece" vector-effect="non-scaling-stroke" d="
  M 238.45 166.42
  L 239.58 167.95
  A 0.25 0.25 0.0 0 1 239.23 168.29
  L 238.11 167.40
  A 0.70 0.69 -43.4 0 0 237.27 167.38
  L 235.23 168.84
  Q 234.73 169.20 235.34 169.27
  C 240.64 169.86 247.37 169.77 251.20 169.92
  Q 267.50 170.55 284.08 170.85
  A 0.32 0.31 52.5 0 0 284.16 170.23
  C 272.16 167.19 260.20 163.92 247.97 161.40
  Q 247.50 161.31 247.10 161.04
  Q 246.12 160.40 245.06 161.05
  Q 243.30 162.11 238.45 166.42"
/>
<path stroke="#cecece" vector-effect="non-scaling-stroke" d="
  M 190.97 155.31
  Q 190.83 158.33 189.55 161.06
  A 0.15 0.15 0.0 0 0 189.80 161.21
  Q 191.67 158.54 191.47 155.31
  A 0.25 0.25 0.0 0 0 190.97 155.31"
/>
<path stroke="#cecece" vector-effect="non-scaling-stroke" d="
  M 107.0045 158.1949
  A 2.84 0.47 -24.0 0 0 104.2188 158.9206
  A 2.84 0.47 -24.0 0 0 101.8155 160.5051
  A 2.84 0.47 -24.0 0 0 104.6012 159.7794
  A 2.84 0.47 -24.0 0 0 107.0045 158.1949"
/>
<path stroke="#cecece" vector-effect="non-scaling-stroke" d="
  M 230.5466 161.4934
  A 3.10 0.50 28.8 0 0 228.0709 159.5618
  A 3.10 0.50 28.8 0 0 225.1134 158.5066
  A 3.10 0.50 28.8 0 0 227.5891 160.4382
  A 3.10 0.50 28.8 0 0 230.5466 161.4934"
/>
<path stroke="#cecece" vector-effect="non-scaling-stroke" d="
  M 162.3545 164.3800
  A 3.05 0.22 125.6 0 0 164.3089 162.0281
  A 3.05 0.22 125.6 0 0 165.9055 159.4200
  A 3.05 0.22 125.6 0 0 163.9511 161.7719
  A 3.05 0.22 125.6 0 0 162.3545 164.3800"
/>
<path stroke="#cecece" vector-effect="non-scaling-stroke" d="
  M 96.6397 162.8128
  A 2.96 0.50 -20.1 0 0 93.6882 163.3605
  A 2.96 0.50 -20.1 0 0 91.0803 164.8472
  A 2.96 0.50 -20.1 0 0 94.0318 164.2995
  A 2.96 0.50 -20.1 0 0 96.6397 162.8128"
/>
<path stroke="#cecece" vector-effect="non-scaling-stroke" d="
  M 186.53 165.52
  L 182.64 169.23
  Q 182.47 169.39 182.69 169.48
  Q 182.99 169.60 183.34 169.35
  Q 185.46 167.89 186.76 165.70
  A 0.15 0.15 0.0 0 0 186.53 165.52"
/>
<path stroke="#cecece" vector-effect="non-scaling-stroke" d="
  M 85.7533 166.6625
  A 2.96 0.47 -19.9 0 0 82.8100 167.2281
  A 2.96 0.47 -19.9 0 0 80.1867 168.6775
  A 2.96 0.47 -19.9 0 0 83.1300 168.1119
  A 2.96 0.47 -19.9 0 0 85.7533 166.6625"
/>
<path stroke="#cecece" vector-effect="non-scaling-stroke" d="
  M 166.85 173.60
  L 162.74 169.53
  A 0.14 0.14 0.0 0 0 162.53 169.70
  Q 164.12 172.22 166.57 173.94
  A 0.22 0.22 0.0 0 0 166.85 173.60"
/>
<path stroke="#cecece" vector-effect="non-scaling-stroke" d="
  M 74.9349 170.1135
  A 2.84 0.52 -11.3 0 0 72.0481 170.1601
  A 2.84 0.52 -11.3 0 0 69.3651 171.2265
  A 2.84 0.52 -11.3 0 0 72.2519 171.1799
  A 2.84 0.52 -11.3 0 0 74.9349 170.1135"
/>
<path stroke="#cecece" vector-effect="non-scaling-stroke" d="
  M 40.9820 171.5694
  A 1.80 0.60 5.4 0 0 39.2465 170.8027
  A 1.80 0.60 5.4 0 0 37.3980 171.2306
  A 1.80 0.60 5.4 0 0 39.1335 171.9973
  A 1.80 0.60 5.4 0 0 40.9820 171.5694"
/>
<path stroke="#cecece" vector-effect="non-scaling-stroke" d="
  M 51.9186 172.6295
  A 2.85 0.52 1.8 0 0 49.0863 172.0203
  A 2.85 0.52 1.8 0 0 46.2214 172.4505
  A 2.85 0.52 1.8 0 0 49.0537 173.0597
  A 2.85 0.52 1.8 0 0 51.9186 172.6295"
/>
<path stroke="#cecece" vector-effect="non-scaling-stroke" d="
  M 63.3262 172.2645
  A 2.78 0.45 -3.0 0 0 60.5264 171.9606
  A 2.78 0.45 -3.0 0 0 57.7738 172.5555
  A 2.78 0.45 -3.0 0 0 60.5736 172.8594
  A 2.78 0.45 -3.0 0 0 63.3262 172.2645"
/>
<path stroke="#cecece" vector-effect="non-scaling-stroke" d="
  M 178.5893 172.7464
  A 3.22 0.37 -17.6 0 0 175.4081 173.3673
  A 3.22 0.37 -17.6 0 0 172.4507 174.6936
  A 3.22 0.37 -17.6 0 0 175.6319 174.0727
  A 3.22 0.37 -17.6 0 0 178.5893 172.7464"
/>
<path stroke="#cecece" vector-effect="non-scaling-stroke" d="
  M 135.95 44.72
  A 0.68 0.68 0.0 0 0 135.77 45.77
  L 148.10 59.45
  A 0.68 0.68 0.0 0 0 149.16 59.39
  L 172.32 26.14
  A 0.68 0.68 0.0 0 0 171.44 25.16
  L 135.95 44.72"
/>
<path stroke="#cecece" vector-effect="non-scaling-stroke" d="
  M 310.97 34.68
  L 286.35 64.49
  A 0.35 0.35 0.0 0 0 286.54 65.05
  L 297.80 67.70
  Q 298.26 67.81 298.44 67.37
  Q 303.83 54.20 309.15 41.01
  C 309.86 39.24 311.44 37.27 312.03 35.24
  A 0.61 0.61 0.0 0 0 310.97 34.68"
/>
<path stroke="#cecece" vector-effect="non-scaling-stroke" d="
  M 313.51 38.26
  L 311.59 70.47
  Q 311.56 70.92 312.01 71.01
  L 323.10 73.27
  A 0.37 0.37 0.0 0 0 323.54 72.82
  L 314.73 36.28
  Q 314.50 35.33 313.60 35.72
  Q 312.54 36.19 313.34 37.55
  A 1.29 1.29 0.0 0 1 313.51 38.26"
/>
<path stroke="#cecece" vector-effect="non-scaling-stroke" d="
  M 311.18 38.33
  L 299.09 67.56
  Q 298.86 68.10 299.07 68.63
  C 299.54 69.83 301.34 74.82 302.93 76.01
  A 0.26 0.26 0.0 0 0 303.33 75.72
  Q 303.14 75.16 303.23 74.75
  Q 305.51 64.32 310.28 42.95
  Q 310.79 40.64 312.34 38.86
  Q 313.08 38.02 311.98 37.87
  A 0.77 0.77 0.0 0 0 311.18 38.33"
/>
<path stroke="#cecece" vector-effect="non-scaling-stroke" d="
  M 311.41 41.83
  L 303.96 75.28
  A 0.56 0.56 0.0 0 0 304.87 75.82
  L 310.27 71.20
  Q 310.69 70.85 310.72 70.30
  Q 311.55 57.30 312.41 44.31
  Q 312.51 42.81 311.98 41.76
  Q 311.60 41.00 311.41 41.83"
/>
<path stroke="#cecece" vector-effect="non-scaling-stroke" d="
  M 169.07 85.88
  A 0.42 0.42 0.0 0 0 168.77 85.21
  L 157.48 84.35
  A 0.42 0.42 0.0 0 0 157.04 84.66
  L 150.73 108.99
  A 0.42 0.42 0.0 0 0 151.48 109.35
  L 169.07 85.88"
/>
<path stroke="#cecece" vector-effect="non-scaling-stroke" d="
  M 160.14 101.06
  A 0.38 0.38 0.0 0 1 160.25 100.82
  Q 165.53 95.70 170.37 90.08
  C 171.30 89.00 171.15 87.90 170.24 86.94
  Q 169.85 86.52 169.48 86.96
  Q 164.66 92.62 160.28 98.63
  C 158.10 101.60 156.89 105.63 153.20 108.53
  Q 152.85 108.80 153.22 109.06
  Q 153.37 109.16 153.58 109.20
  Q 153.88 109.26 154.29 109.05
  Q 174.11 98.79 194.12 88.67
  A 0.41 0.41 0.0 0 0 193.97 87.89
  L 176.59 86.35
  Q 176.03 86.30 175.62 86.69
  Q 167.94 93.91 160.74 101.47
  Q 160.05 102.20 160.14 101.06"
/>
</g>
<path fill="#ffffff" d="
  M 0.00 0.00
  L 334.00 0.00
  L 334.00 200.00
  L 0.00 200.00
  L 0.00 0.00
  Z
  M 128.34 53.45
  L 126.02 57.07
  Q 125.97 57.15 126.00 57.24
  Q 126.05 57.39 126.10 57.54
  A 0.14 0.13 -36.6 0 0 126.34 57.57
  C 128.96 53.80 133.94 51.94 136.99 49.31
  Q 137.58 48.79 138.12 49.38
  L 148.48 60.75
  Q 148.85 61.16 149.16 60.71
  L 174.49 23.72
  A 0.29 0.29 0.0 0 0 174.23 23.26
  C 170.91 23.50 168.72 25.76 166.17 26.71
  Q 147.79 33.59 129.69 41.31
  Q 129.26 41.49 128.95 41.14
  L 119.87 31.02
  A 0.48 0.48 0.0 0 1 120.17 30.23
  L 169.24 24.46
  Q 169.73 24.40 169.39 24.05
  Q 169.21 23.87 168.95 23.90
  Q 143.76 26.52 118.67 29.61
  A 0.42 0.42 0.0 0 0 118.41 30.31
  L 128.49 41.83
  Q 128.82 42.21 128.79 42.71
  Q 128.50 47.70 127.78 51.50
  Q 127.57 52.57 128.34 53.45
  Z
  M 311.06 33.90
  Q 310.23 34.51 309.55 35.31
  Q 297.21 49.89 285.16 64.80
  Q 284.66 65.42 285.43 65.59
  L 297.66 68.34
  Q 298.27 68.48 298.51 69.05
  L 303.52 80.64
  A 0.27 0.26 32.3 0 0 304.03 80.53
  L 303.90 77.81
  A 0.69 0.68 68.9 0 1 304.15 77.24
  L 309.80 72.62
  A 3.53 3.51 31.5 0 1 312.79 71.91
  L 324.13 74.41
  Q 324.84 74.57 324.66 73.86
  L 313.95 31.12
  A 0.48 0.48 0.0 0 0 313.07 30.99
  L 311.77 33.12
  Q 311.49 33.58 311.06 33.90
  Z
  M 262.01 38.25
  L 260.60 39.72
  A 0.37 0.37 0.0 0 0 261.12 40.25
  Q 261.89 39.54 262.57 38.76
  A 0.38 0.38 0.0 0 0 262.01 38.25
  Z
  M 84.30 44.45
  Q 86.50 43.46 88.91 43.78
  Q 89.17 43.81 89.23 43.56
  Q 89.36 42.99 89.05 43.21
  Q 85.73 42.02 83.99 44.03
  Q 83.22 44.93 84.30 44.45
  Z
  M 256.8791 43.8587
  A 3.00 0.48 -36.9 0 0 254.1918 45.2762
  A 3.00 0.48 -36.9 0 0 252.0809 47.4613
  A 3.00 0.48 -36.9 0 0 254.7682 46.0438
  A 3.00 0.48 -36.9 0 0 256.8791 43.8587
  Z
  M 92.46 53.71
  L 93.24 53.74
  A 0.20 0.20 0.0 0 0 93.45 53.55
  L 93.45 53.43
  A 5.62 0.44 -87.7 0 0 93.24 47.80
  L 92.94 47.79
  A 5.62 0.44 -87.7 0 0 92.27 53.38
  L 92.27 53.50
  A 0.20 0.20 0.0 0 0 92.46 53.71
  Z
  M 88.8788 54.9431
  A 3.30 0.39 49.6 0 0 87.0370 52.1772
  A 3.30 0.39 49.6 0 0 84.6012 49.9169
  A 3.30 0.39 49.6 0 0 86.4430 52.6828
  A 3.30 0.39 49.6 0 0 88.8788 54.9431
  Z
  M 247.4964 50.5810
  A 2.77 0.50 -34.0 0 0 244.9204 51.7155
  A 2.77 0.50 -34.0 0 0 242.9036 53.6790
  A 2.77 0.50 -34.0 0 0 245.4796 52.5445
  A 2.77 0.50 -34.0 0 0 247.4964 50.5810
  Z
  M 238.2292 56.9038
  A 2.86 0.48 -27.4 0 0 235.4691 57.7938
  A 2.86 0.48 -27.4 0 0 233.1508 59.5362
  A 2.86 0.48 -27.4 0 0 235.9109 58.6462
  A 2.86 0.48 -27.4 0 0 238.2292 56.9038
  Z
  M 99.8501 59.1719
  A 3.24 0.39 16.9 0 0 96.8634 57.8568
  A 3.24 0.39 16.9 0 0 93.6499 57.2881
  A 3.24 0.39 16.9 0 0 96.6366 58.6032
  A 3.24 0.39 16.9 0 0 99.8501 59.1719
  Z
  M 86.1017 63.2233
  A 3.04 0.34 131.6 0 0 88.3743 61.1757
  A 3.04 0.34 131.6 0 0 90.1383 58.6767
  A 3.04 0.34 131.6 0 0 87.8657 60.7243
  A 3.04 0.34 131.6 0 0 86.1017 63.2233
  Z
  M 111.1001 61.6168
  A 3.24 0.44 9.0 0 0 107.9688 60.6754
  A 3.24 0.44 9.0 0 0 104.6999 60.6032
  A 3.24 0.44 9.0 0 0 107.8312 61.5446
  A 3.24 0.44 9.0 0 0 111.1001 61.6168
  Z
  M 117.05 62.50
  Q 119.70 62.63 122.03 61.43
  A 0.33 0.33 0.0 0 0 121.79 60.81
  L 117.01 62.12
  A 0.19 0.19 0.0 0 0 117.05 62.50
  Z
  M 228.2681 61.4315
  A 2.95 0.49 -15.1 0 0 225.2924 61.7269
  A 2.95 0.49 -15.1 0 0 222.5719 62.9685
  A 2.95 0.49 -15.1 0 0 225.5476 62.6731
  A 2.95 0.49 -15.1 0 0 228.2681 61.4315
  Z
  M 216.9483 64.1278
  A 2.73 0.46 -5.3 0 0 214.1875 63.9220
  A 2.73 0.46 -5.3 0 0 211.5117 64.6322
  A 2.73 0.46 -5.3 0 0 214.2725 64.8380
  A 2.73 0.46 -5.3 0 0 216.9483 64.1278
  Z
  M 206.0044 65.3228
  A 3.04 0.46 -5.8 0 0 202.9335 65.1724
  A 3.04 0.46 -5.8 0 0 199.9556 65.9372
  A 3.04 0.46 -5.8 0 0 203.0265 66.0876
  A 3.04 0.46 -5.8 0 0 206.0044 65.3228
  Z
  M 194.7006 66.4851
  A 3.01 0.41 -11.4 0 0 191.6690 66.6781
  A 3.01 0.41 -11.4 0 0 188.7994 67.6749
  A 3.01 0.41 -11.4 0 0 191.8310 67.4819
  A 3.01 0.41 -11.4 0 0 194.7006 66.4851
  Z
  M 81.4270 66.6494
  A 2.91 0.49 -28.1 0 0 78.6292 67.5878
  A 2.91 0.49 -28.1 0 0 76.2930 69.3906
  A 2.91 0.49 -28.1 0 0 79.0908 68.4522
  A 2.91 0.49 -28.1 0 0 81.4270 66.6494
  Z
  M 35.27 67.96
  C 33.69 67.61 32.46 67.08 30.78 67.02
  Q 30.61 67.01 30.50 67.13
  Q 30.40 67.23 30.30 67.32
  A 0.09 0.09 0.0 0 0 30.34 67.47
  L 35.35 68.58
  A 0.25 0.25 0.0 0 0 35.62 68.22
  Q 35.52 68.01 35.27 67.96
  Z
  M 184.1903 68.8825
  A 3.23 0.44 -33.6 0 0 181.2565 70.3035
  A 3.23 0.44 -33.6 0 0 178.8097 72.4575
  A 3.23 0.44 -33.6 0 0 181.7435 71.0365
  A 3.23 0.44 -33.6 0 0 184.1903 68.8825
  Z
  M 71.0085 71.7084
  A 2.95 0.50 -21.3 0 0 68.0784 72.3142
  A 2.95 0.50 -21.3 0 0 65.5115 73.8516
  A 2.95 0.50 -21.3 0 0 68.4416 73.2458
  A 2.95 0.50 -21.3 0 0 71.0085 71.7084
  Z
  M 39.99 74.96
  L 39.79 78.29
  A 0.21 0.21 0.0 0 0 40.21 78.35
  Q 40.91 75.40 40.04 72.52
  A 0.27 0.27 0.0 0 0 39.51 72.61
  Q 39.55 73.61 39.93 74.60
  A 0.92 0.78 40.3 0 1 39.99 74.96
  Z
  M 37.2142 74.8272
  A 3.15 0.32 17.5 0 0 34.3062 73.5748
  A 3.15 0.32 17.5 0 0 31.2058 72.9328
  A 3.15 0.32 17.5 0 0 34.1138 74.1852
  A 3.15 0.32 17.5 0 0 37.2142 74.8272
  Z
  M 59.8742 75.6357
  A 2.88 0.49 -11.3 0 0 56.9540 75.7195
  A 2.88 0.49 -11.3 0 0 54.2258 76.7643
  A 2.88 0.49 -11.3 0 0 57.1460 76.6805
  A 2.88 0.49 -11.3 0 0 59.8742 75.6357
  Z
  M 48.7801 76.7998
  A 3.09 0.29 6.5 0 0 45.7428 76.1619
  A 3.09 0.29 6.5 0 0 42.6399 76.1002
  A 3.09 0.29 6.5 0 0 45.6772 76.7381
  A 3.09 0.29 6.5 0 0 48.7801 76.7998
  Z
  M 172.9154 82.3039
  A 3.22 0.50 113.9 0 0 174.6771 79.5626
  A 3.22 0.50 113.9 0 0 175.5246 76.4161
  A 3.22 0.50 113.9 0 0 173.7629 79.1574
  A 3.22 0.50 113.9 0 0 172.9154 82.3039
  Z
  M 38.30 83.74
  L 35.74 88.23
  A 0.24 0.24 0.0 0 0 36.14 88.50
  Q 37.78 86.40 38.56 83.85
  A 0.14 0.14 0.0 0 0 38.30 83.74
  Z
  M 170.75 86.58
  L 170.26 85.21
  Q 170.06 84.65 169.46 84.60
  L 157.13 83.39
  Q 156.59 83.34 156.45 83.86
  L 149.29 111.67
  A 0.34 0.34 0.0 0 0 149.77 112.06
  L 196.93 88.01
  A 0.32 0.32 0.0 0 0 196.81 87.41
  Q 187.71 86.77 178.51 85.42
  Q 175.08 84.91 173.65 86.96
  A 1.65 1.65 0.0 0 1 170.75 86.58
  Z
  M 305.6006 92.6221
  A 3.39 0.48 86.1 0 0 305.8489 89.2074
  A 3.39 0.48 86.1 0 0 305.1394 85.8579
  A 3.39 0.48 86.1 0 0 304.8911 89.2726
  A 3.39 0.48 86.1 0 0 305.6006 92.6221
  Z
  M 31.6024 92.8348
  A 3.05 0.42 -26.8 0 0 28.6906 93.8351
  A 3.05 0.42 -26.8 0 0 26.1576 95.5852
  A 3.05 0.42 -26.8 0 0 29.0694 94.5849
  A 3.05 0.42 -26.8 0 0 31.6024 92.8348
  Z
  M 21.1348 97.4350
  A 3.36 0.48 -8.3 0 0 17.7407 97.4450
  A 3.36 0.48 -8.3 0 0 14.4852 98.4050
  A 3.36 0.48 -8.3 0 0 17.8793 98.3950
  A 3.36 0.48 -8.3 0 0 21.1348 97.4350
  Z
  M 9.3195 98.8270
  A 1.70 0.60 -8.9 0 0 7.5472 98.4972
  A 1.70 0.60 -8.9 0 0 5.9605 99.3530
  A 1.70 0.60 -8.9 0 0 7.7328 99.6828
  A 1.70 0.60 -8.9 0 0 9.3195 98.8270
  Z
  M 305.6900 99.0869
  A 0.36 0.36 0.0 0 0 305.4773 98.6243
  L 305.3460 98.5758
  A 0.36 0.36 0.0 0 0 304.8834 98.7885
  L 303.0100 103.8531
  A 0.36 0.36 0.0 0 0 303.2227 104.3157
  L 303.3540 104.3642
  A 0.36 0.36 0.0 0 0 303.8166 104.1515
  L 305.6900 99.0869
  Z
  M 299.6223 108.8128
  A 0.26 0.26 0.0 0 0 299.2584 108.7603
  L 294.9345 111.9950
  A 0.26 0.26 0.0 0 0 294.8820 112.3590
  L 295.0977 112.6472
  A 0.26 0.26 0.0 0 0 295.4616 112.6997
  L 299.7855 109.4650
  A 0.26 0.26 0.0 0 0 299.8380 109.1010
  L 299.6223 108.8128
  Z
  M 289.2223 114.9399
  A 3.08 0.54 -10.1 0 0 286.0953 114.9484
  A 3.08 0.54 -10.1 0 0 283.1577 116.0201
  A 3.08 0.54 -10.1 0 0 286.2847 116.0116
  A 3.08 0.54 -10.1 0 0 289.2223 114.9399
  Z
  M 264.8670 116.4071
  A 2.93 0.51 -2.6 0 0 261.9169 116.0305
  A 2.93 0.51 -2.6 0 0 259.0130 116.6729
  A 2.93 0.51 -2.6 0 0 261.9631 117.0495
  A 2.93 0.51 -2.6 0 0 264.8670 116.4071
  Z
  M 277.1996 116.4342
  A 0.46 0.46 0.0 0 0 276.7356 115.9782
  L 271.7358 116.0218
  A 0.46 0.46 0.0 0 0 271.2799 116.4858
  L 271.2804 116.5458
  A 0.46 0.46 0.0 0 0 271.7444 117.0018
  L 276.7442 116.9582
  A 0.46 0.46 0.0 0 0 277.2001 116.4942
  L 277.1996 116.4342
  Z
  M 252.8997 117.1248
  A 2.94 0.49 -9.5 0 0 249.9191 117.1267
  A 2.94 0.49 -9.5 0 0 247.1003 118.0952
  A 2.94 0.49 -9.5 0 0 250.0809 118.0933
  A 2.94 0.49 -9.5 0 0 252.8997 117.1248
  Z
  M 240.8958 119.8224
  A 0.36 0.36 0.0 0 0 240.4238 119.6317
  L 235.9133 121.5462
  A 0.36 0.36 0.0 0 0 235.7226 122.0183
  L 235.8242 122.2576
  A 0.36 0.36 0.0 0 0 236.2962 122.4483
  L 240.8067 120.5338
  A 0.36 0.36 0.0 0 0 240.9974 120.0617
  L 240.8958 119.8224
  Z
  M 230.5774 125.4466
  A 1.70 0.50 -32.9 0 0 228.8784 125.9502
  A 1.70 0.50 -32.9 0 0 227.7226 127.2934
  A 1.70 0.50 -32.9 0 0 229.4216 126.7898
  A 1.70 0.50 -32.9 0 0 230.5774 125.4466
  Z
  M 166.74 138.13
  Q 169.61 138.63 172.22 138.11
  A 0.18 0.18 0.0 0 0 172.19 137.76
  L 166.77 137.75
  A 0.19 0.19 0.0 0 0 166.74 138.13
  Z
  M 160.9847 138.6173
  A 3.04 0.30 -9.9 0 0 157.9384 138.8445
  A 3.04 0.30 -9.9 0 0 154.9953 139.6627
  A 3.04 0.30 -9.9 0 0 158.0416 139.4355
  A 3.04 0.30 -9.9 0 0 160.9847 138.6173
  Z
  M 183.1217 141.2078
  A 3.13 0.41 22.5 0 0 180.3869 139.6312
  A 3.13 0.41 22.5 0 0 177.3383 138.8122
  A 3.13 0.41 22.5 0 0 180.0731 140.3888
  A 3.13 0.41 22.5 0 0 183.1217 141.2078
  Z
  M 150.1235 141.0513
  A 3.03 0.39 -14.5 0 0 147.0924 141.4324
  A 3.03 0.39 -14.5 0 0 144.2565 142.5687
  A 3.03 0.39 -14.5 0 0 147.2876 142.1876
  A 3.03 0.39 -14.5 0 0 150.1235 141.0513
  Z
  M 138.7643 144.6127
  A 2.99 0.44 -20.3 0 0 135.8073 145.2373
  A 2.99 0.44 -20.3 0 0 133.1557 146.6873
  A 2.99 0.44 -20.3 0 0 136.1127 146.0627
  A 2.99 0.44 -20.3 0 0 138.7643 144.6127
  Z
  M 188.98 147.54
  Q 189.49 148.62 190.31 149.49
  Q 190.99 150.22 190.63 149.29
  Q 189.71 146.91 187.97 145.05
  A 0.44 0.44 0.0 0 0 187.31 145.62
  Q 187.76 146.20 188.32 146.68
  A 2.64 2.62 -82.7 0 1 188.98 147.54
  Z
  M 128.0495 148.8495
  A 2.98 0.46 -24.6 0 0 125.1485 149.6718
  A 2.98 0.46 -24.6 0 0 122.6305 151.3305
  A 2.98 0.46 -24.6 0 0 125.5315 150.5082
  A 2.98 0.46 -24.6 0 0 128.0495 148.8495
  Z
  M 198.2652 150.2979
  A 3.29 0.41 3.1 0 0 195.0022 149.7106
  A 3.29 0.41 3.1 0 0 191.6948 149.9421
  A 3.29 0.41 3.1 0 0 194.9578 150.5294
  A 3.29 0.41 3.1 0 0 198.2652 150.2979
  Z
  M 181.44 151.33
  C 182.43 151.08 185.82 150.89 186.27 150.65
  Q 186.39 150.58 186.49 150.50
  Q 186.75 150.30 186.42 150.27
  Q 183.45 150.02 180.65 150.99
  A 0.26 0.25 -47.7 0 0 180.67 151.48
  Q 180.98 151.55 181.21 151.43
  Q 181.32 151.36 181.44 151.33
  Z
  M 209.3432 152.7470
  A 3.13 0.51 15.7 0 0 206.4680 151.4090
  A 3.13 0.51 15.7 0 0 203.3168 151.0530
  A 3.13 0.51 15.7 0 0 206.1920 152.3910
  A 3.13 0.51 15.7 0 0 209.3432 152.7470
  Z
  M 175.5102 153.0386
  A 2.85 0.24 -25.6 0 0 172.8363 154.0536
  A 2.85 0.24 -25.6 0 0 170.3698 155.5014
  A 2.85 0.24 -25.6 0 0 173.0437 154.4864
  A 2.85 0.24 -25.6 0 0 175.5102 153.0386
  Z
  M 117.6663 153.5973
  A 3.04 0.53 -23.1 0 0 114.6621 154.3025
  A 3.04 0.53 -23.1 0 0 112.0737 155.9827
  A 3.04 0.53 -23.1 0 0 115.0779 155.2775
  A 3.04 0.53 -23.1 0 0 117.6663 153.5973
  Z
  M 219.9740 156.2415
  A 3.02 0.53 21.8 0 0 217.3668 154.6279
  A 3.02 0.53 21.8 0 0 214.3660 153.9985
  A 3.02 0.53 21.8 0 0 216.9732 155.6121
  A 3.02 0.53 21.8 0 0 219.9740 156.2415
  Z
  M 238.45 166.42
  Q 236.95 165.61 235.66 164.56
  Q 235.50 164.43 235.36 164.42
  Q 235.14 164.41 234.95 164.54
  A 0.32 0.32 0.0 0 0 234.94 165.06
  L 236.70 166.43
  Q 237.33 166.92 236.64 167.32
  L 233.73 169.00
  A 0.40 0.40 0.0 0 0 233.90 169.75
  Q 239.86 170.17 245.76 170.56
  Q 246.14 170.58 245.74 171.48
  L 243.67 172.44
  Q 243.28 172.62 243.60 172.91
  L 245.16 174.30
  Q 245.56 174.66 246.09 174.62
  L 289.45 171.54
  A 0.21 0.21 0.0 0 0 289.56 171.16
  C 285.50 168.39 280.55 168.33 277.15 167.40
  Q 263.21 163.62 249.34 159.57
  A 0.26 0.26 0.0 0 0 249.16 160.05
  L 249.92 160.40
  A 0.13 0.12 -80.3 0 1 250.00 160.52
  Q 250.00 160.65 250.00 160.78
  A 0.42 0.42 0.0 0 1 249.51 161.19
  L 247.42 160.80
  A 0.61 0.60 -60.8 0 1 247.13 159.76
  L 252.70 154.66
  A 1.16 1.15 -53.1 0 1 253.98 154.47
  L 279.56 166.93
  Q 279.98 167.14 279.98 166.66
  Q 279.97 166.37 279.71 166.24
  Q 266.76 160.19 253.90 153.75
  A 0.91 0.91 0.0 0 0 252.98 153.81
  C 249.82 156.05 247.26 159.01 244.21 161.14
  C 242.88 162.06 238.72 164.63 238.45 166.42
  Z
  M 190.97 155.31
  Q 190.83 158.33 189.55 161.06
  A 0.15 0.15 0.0 0 0 189.80 161.21
  Q 191.67 158.54 191.47 155.31
  A 0.25 0.25 0.0 0 0 190.97 155.31
  Z
  M 107.0045 158.1949
  A 2.84 0.47 -24.0 0 0 104.2188 158.9206
  A 2.84 0.47 -24.0 0 0 101.8155 160.5051
  A 2.84 0.47 -24.0 0 0 104.6012 159.7794
  A 2.84 0.47 -24.0 0 0 107.0045 158.1949
  Z
  M 230.5466 161.4934
  A 3.10 0.50 28.8 0 0 228.0709 159.5618
  A 3.10 0.50 28.8 0 0 225.1134 158.5066
  A 3.10 0.50 28.8 0 0 227.5891 160.4382
  A 3.10 0.50 28.8 0 0 230.5466 161.4934
  Z
  M 162.3545 164.3800
  A 3.05 0.22 125.6 0 0 164.3089 162.0281
  A 3.05 0.22 125.6 0 0 165.9055 159.4200
  A 3.05 0.22 125.6 0 0 163.9511 161.7719
  A 3.05 0.22 125.6 0 0 162.3545 164.3800
  Z
  M 96.6397 162.8128
  A 2.96 0.50 -20.1 0 0 93.6882 163.3605
  A 2.96 0.50 -20.1 0 0 91.0803 164.8472
  A 2.96 0.50 -20.1 0 0 94.0318 164.2995
  A 2.96 0.50 -20.1 0 0 96.6397 162.8128
  Z
  M 186.53 165.52
  L 182.64 169.23
  Q 182.47 169.39 182.69 169.48
  Q 182.99 169.60 183.34 169.35
  Q 185.46 167.89 186.76 165.70
  A 0.15 0.15 0.0 0 0 186.53 165.52
  Z
  M 85.7533 166.6625
  A 2.96 0.47 -19.9 0 0 82.8100 167.2281
  A 2.96 0.47 -19.9 0 0 80.1867 168.6775
  A 2.96 0.47 -19.9 0 0 83.1300 168.1119
  A 2.96 0.47 -19.9 0 0 85.7533 166.6625
  Z
  M 166.85 173.60
  L 162.74 169.53
  A 0.14 0.14 0.0 0 0 162.53 169.70
  Q 164.12 172.22 166.57 173.94
  A 0.22 0.22 0.0 0 0 166.85 173.60
  Z
  M 74.9349 170.1135
  A 2.84 0.52 -11.3 0 0 72.0481 170.1601
  A 2.84 0.52 -11.3 0 0 69.3651 171.2265
  A 2.84 0.52 -11.3 0 0 72.2519 171.1799
  A 2.84 0.52 -11.3 0 0 74.9349 170.1135
  Z
  M 40.9820 171.5694
  A 1.80 0.60 5.4 0 0 39.2465 170.8027
  A 1.80 0.60 5.4 0 0 37.3980 171.2306
  A 1.80 0.60 5.4 0 0 39.1335 171.9973
  A 1.80 0.60 5.4 0 0 40.9820 171.5694
  Z
  M 51.9186 172.6295
  A 2.85 0.52 1.8 0 0 49.0863 172.0203
  A 2.85 0.52 1.8 0 0 46.2214 172.4505
  A 2.85 0.52 1.8 0 0 49.0537 173.0597
  A 2.85 0.52 1.8 0 0 51.9186 172.6295
  Z
  M 63.3262 172.2645
  A 2.78 0.45 -3.0 0 0 60.5264 171.9606
  A 2.78 0.45 -3.0 0 0 57.7738 172.5555
  A 2.78 0.45 -3.0 0 0 60.5736 172.8594
  A 2.78 0.45 -3.0 0 0 63.3262 172.2645
  Z
  M 178.5893 172.7464
  A 3.22 0.37 -17.6 0 0 175.4081 173.3673
  A 3.22 0.37 -17.6 0 0 172.4507 174.6936
  A 3.22 0.37 -17.6 0 0 175.6319 174.0727
  A 3.22 0.37 -17.6 0 0 178.5893 172.7464
  Z"
/>
<path fill="#9d9c9d" d="
  M 128.34 53.45
  Q 133.09 52.53 136.51 48.77
  Q 136.89 48.36 136.58 47.89
  L 135.28 45.90
  A 0.59 0.59 0.0 0 0 134.30 45.90
  L 130.67 51.51
  Q 130.44 51.87 130.24 51.48
  Q 130.15 51.31 130.29 51.13
  C 132.43 48.46 133.17 45.45 134.78 44.53
  Q 147.29 37.43 160.02 30.74
  Q 160.82 30.32 161.15 29.63
  Q 161.41 29.10 160.86 29.32
  L 129.91 41.98
  Q 129.50 42.14 129.45 42.58
  L 128.34 53.45
  Q 127.57 52.57 127.78 51.50
  Q 128.50 47.70 128.79 42.71
  Q 128.82 42.21 128.49 41.83
  L 118.41 30.31
  A 0.42 0.42 0.0 0 1 118.67 29.61
  Q 143.76 26.52 168.95 23.90
  Q 169.21 23.87 169.39 24.05
  Q 169.73 24.40 169.24 24.46
  L 120.17 30.23
  A 0.48 0.48 0.0 0 0 119.87 31.02
  L 128.95 41.14
  Q 129.26 41.49 129.69 41.31
  Q 147.79 33.59 166.17 26.71
  C 168.72 25.76 170.91 23.50 174.23 23.26
  A 0.29 0.29 0.0 0 1 174.49 23.72
  L 149.16 60.71
  Q 148.85 61.16 148.48 60.75
  L 138.12 49.38
  Q 137.58 48.79 136.99 49.31
  C 133.94 51.94 128.96 53.80 126.34 57.57
  A 0.14 0.13 -36.6 0 1 126.10 57.54
  Q 126.05 57.39 126.00 57.24
  Q 125.97 57.15 126.02 57.07
  L 128.34 53.45
  Z
  M 135.95 44.72
  A 0.68 0.68 0.0 0 0 135.77 45.77
  L 148.10 59.45
  A 0.68 0.68 0.0 0 0 149.16 59.39
  L 172.32 26.14
  A 0.68 0.68 0.0 0 0 171.44 25.16
  L 135.95 44.72
  Z"
/>
<path fill="#ffffff" d="
  M 135.95 44.72
  L 171.44 25.16
  A 0.68 0.68 0.0 0 1 172.32 26.14
  L 149.16 59.39
  A 0.68 0.68 0.0 0 1 148.10 59.45
  L 135.77 45.77
  A 0.68 0.68 0.0 0 1 135.95 44.72
  Z"
/>
<path fill="#ffffff" d="
  M 128.34 53.45
  L 129.45 42.58
  Q 129.50 42.14 129.91 41.98
  L 160.86 29.32
  Q 161.41 29.10 161.15 29.63
  Q 160.82 30.32 160.02 30.74
  Q 147.29 37.43 134.78 44.53
  C 133.17 45.45 132.43 48.46 130.29 51.13
  Q 130.15 51.31 130.24 51.48
  Q 130.44 51.87 130.67 51.51
  L 134.30 45.90
  A 0.59 0.59 0.0 0 1 135.28 45.90
  L 136.58 47.89
  Q 136.89 48.36 136.51 48.77
  Q 133.09 52.53 128.34 53.45
  Z"
/>
<path fill="#9d9c9d" d="
  M 311.77 33.12
  L 313.07 30.99
  A 0.48 0.48 0.0 0 1 313.95 31.12
  L 324.66 73.86
  Q 324.84 74.57 324.13 74.41
  L 312.79 71.91
  A 3.53 3.51 31.5 0 0 309.80 72.62
  L 304.15 77.24
  A 0.69 0.68 68.9 0 0 303.90 77.81
  L 304.03 80.53
  A 0.27 0.26 32.3 0 1 303.52 80.64
  L 298.51 69.05
  Q 298.27 68.48 297.66 68.34
  L 285.43 65.59
  Q 284.66 65.42 285.16 64.80
  Q 297.21 49.89 309.55 35.31
  Q 310.23 34.51 311.06 33.90
  Q 311.49 33.58 311.77 33.12
  Z
  M 310.97 34.68
  L 286.35 64.49
  A 0.35 0.35 0.0 0 0 286.54 65.05
  L 297.80 67.70
  Q 298.26 67.81 298.44 67.37
  Q 303.83 54.20 309.15 41.01
  C 309.86 39.24 311.44 37.27 312.03 35.24
  A 0.61 0.61 0.0 0 0 310.97 34.68
  Z
  M 313.51 38.26
  L 311.59 70.47
  Q 311.56 70.92 312.01 71.01
  L 323.10 73.27
  A 0.37 0.37 0.0 0 0 323.54 72.82
  L 314.73 36.28
  Q 314.50 35.33 313.60 35.72
  Q 312.54 36.19 313.34 37.55
  A 1.29 1.29 0.0 0 1 313.51 38.26
  Z
  M 311.18 38.33
  L 299.09 67.56
  Q 298.86 68.10 299.07 68.63
  C 299.54 69.83 301.34 74.82 302.93 76.01
  A 0.26 0.26 0.0 0 0 303.33 75.72
  Q 303.14 75.16 303.23 74.75
  Q 305.51 64.32 310.28 42.95
  Q 310.79 40.64 312.34 38.86
  Q 313.08 38.02 311.98 37.87
  A 0.77 0.77 0.0 0 0 311.18 38.33
  Z
  M 311.41 41.83
  L 303.96 75.28
  A 0.56 0.56 0.0 0 0 304.87 75.82
  L 310.27 71.20
  Q 310.69 70.85 310.72 70.30
  Q 311.55 57.30 312.41 44.31
  Q 312.51 42.81 311.98 41.76
  Q 311.60 41.00 311.41 41.83
  Z"
/>
<path fill="#ffffff" d="
  M 286.35 64.49
  L 310.97 34.68
  A 0.61 0.61 0.0 0 1 312.03 35.24
  C 311.44 37.27 309.86 39.24 309.15 41.01
  Q 303.83 54.20 298.44 67.37
  Q 298.26 67.81 297.80 67.70
  L 286.54 65.05
  A 0.35 0.35 0.0 0 1 286.35 64.49
  Z"
/>
<path fill="#ffffff" d="
  M 311.59 70.47
  L 313.51 38.26
  A 1.29 1.29 0.0 0 0 313.34 37.55
  Q 312.54 36.19 313.60 35.72
  Q 314.50 35.33 314.73 36.28
  L 323.54 72.82
  A 0.37 0.37 0.0 0 1 323.10 73.27
  L 312.01 71.01
  Q 311.56 70.92 311.59 70.47
  Z"
/>
<path fill="#ffffff" d="
  M 299.09 67.56
  L 311.18 38.33
  A 0.77 0.77 0.0 0 1 311.98 37.87
  Q 313.08 38.02 312.34 38.86
  Q 310.79 40.64 310.28 42.95
  Q 305.51 64.32 303.23 74.75
  Q 303.14 75.16 303.33 75.72
  A 0.26 0.26 0.0 0 1 302.93 76.01
  C 301.34 74.82 299.54 69.83 299.07 68.63
  Q 298.86 68.10 299.09 67.56
  Z"
/>
<path fill="#9d9c9d" d="
  M 262.01 38.25
  A 0.38 0.38 0.0 0 1 262.57 38.76
  Q 261.89 39.54 261.12 40.25
  A 0.37 0.37 0.0 0 1 260.60 39.72
  L 262.01 38.25
  Z"
/>
<path fill="#ffffff" d="
  M 303.96 75.28
  L 311.41 41.83
  Q 311.60 41.00 311.98 41.76
  Q 312.51 42.81 312.41 44.31
  Q 311.55 57.30 310.72 70.30
  Q 310.69 70.85 310.27 71.20
  L 304.87 75.82
  A 0.56 0.56 0.0 0 1 303.96 75.28
  Z"
/>
<path fill="#9d9c9d" d="
  M 83.99 44.03
  Q 85.73 42.02 89.05 43.21
  Q 89.36 42.99 89.23 43.56
  Q 89.17 43.81 88.91 43.78
  Q 86.50 43.46 84.30 44.45
  Q 83.22 44.93 83.99 44.03
  Z"
/>
<ellipse fill="#9d9c9d" cx="0.00" cy="0.00" transform="translate(254.48,45.66) rotate(-36.9)" rx="3.00" ry="0.48"/>
<path fill="#9d9c9d" d="
  M 92.46 53.71
  A 0.20 0.20 0.0 0 1 92.27 53.50
  L 92.27 53.38
  A 5.62 0.44 -87.7 0 1 92.94 47.79
  L 93.24 47.80
  A 5.62 0.44 -87.7 0 1 93.45 53.43
  L 93.45 53.55
  A 0.20 0.20 0.0 0 1 93.24 53.74
  L 92.46 53.71
  Z"
/>
<ellipse fill="#9d9c9d" cx="0.00" cy="0.00" transform="translate(86.74,52.43) rotate(49.6)" rx="3.30" ry="0.39"/>
<ellipse fill="#9d9c9d" cx="0.00" cy="0.00" transform="translate(245.20,52.13) rotate(-34.0)" rx="2.77" ry="0.50"/>
<ellipse fill="#9d9c9d" cx="0.00" cy="0.00" transform="translate(235.69,58.22) rotate(-27.4)" rx="2.86" ry="0.48"/>
<ellipse fill="#9d9c9d" cx="0.00" cy="0.00" transform="translate(96.75,58.23) rotate(16.9)" rx="3.24" ry="0.39"/>
<ellipse fill="#9d9c9d" cx="0.00" cy="0.00" transform="translate(88.12,60.95) rotate(131.6)" rx="3.04" ry="0.34"/>
<ellipse fill="#9d9c9d" cx="0.00" cy="0.00" transform="translate(107.90,61.11) rotate(9.0)" rx="3.24" ry="0.44"/>
<path fill="#9d9c9d" d="
  M 117.05 62.50
  A 0.19 0.19 0.0 0 1 117.01 62.12
  L 121.79 60.81
  A 0.33 0.33 0.0 0 1 122.03 61.43
  Q 119.70 62.63 117.05 62.50
  Z"
/>
<ellipse fill="#9d9c9d" cx="0.00" cy="0.00" transform="translate(225.42,62.20) rotate(-15.1)" rx="2.95" ry="0.49"/>
<ellipse fill="#9d9c9d" cx="0.00" cy="0.00" transform="translate(214.23,64.38) rotate(-5.3)" rx="2.73" ry="0.46"/>
<ellipse fill="#9d9c9d" cx="0.00" cy="0.00" transform="translate(202.98,65.63) rotate(-5.8)" rx="3.04" ry="0.46"/>
<ellipse fill="#9d9c9d" cx="0.00" cy="0.00" transform="translate(191.75,67.08) rotate(-11.4)" rx="3.01" ry="0.41"/>
<ellipse fill="#9d9c9d" cx="0.00" cy="0.00" transform="translate(78.86,68.02) rotate(-28.1)" rx="2.91" ry="0.49"/>
<path fill="#9d9c9d" d="
  M 35.27 67.96
  Q 35.52 68.01 35.62 68.22
  A 0.25 0.25 0.0 0 1 35.35 68.58
  L 30.34 67.47
  A 0.09 0.09 0.0 0 1 30.30 67.32
  Q 30.40 67.23 30.50 67.13
  Q 30.61 67.01 30.78 67.02
  C 32.46 67.08 33.69 67.61 35.27 67.96
  Z"
/>
<ellipse fill="#9d9c9d" cx="0.00" cy="0.00" transform="translate(181.50,70.67) rotate(-33.6)" rx="3.23" ry="0.44"/>
<ellipse fill="#9d9c9d" cx="0.00" cy="0.00" transform="translate(68.26,72.78) rotate(-21.3)" rx="2.95" ry="0.50"/>
<path fill="#9d9c9d" d="
  M 39.93 74.60
  Q 39.55 73.61 39.51 72.61
  A 0.27 0.27 0.0 0 1 40.04 72.52
  Q 40.91 75.40 40.21 78.35
  A 0.21 0.21 0.0 0 1 39.79 78.29
  L 39.99 74.96
  A 0.92 0.78 40.3 0 0 39.93 74.60
  Z"
/>
<ellipse fill="#9d9c9d" cx="0.00" cy="0.00" transform="translate(34.21,73.88) rotate(17.5)" rx="3.15" ry="0.32"/>
<ellipse fill="#9d9c9d" cx="0.00" cy="0.00" transform="translate(57.05,76.20) rotate(-11.3)" rx="2.88" ry="0.49"/>
<ellipse fill="#9d9c9d" cx="0.00" cy="0.00" transform="translate(45.71,76.45) rotate(6.5)" rx="3.09" ry="0.29"/>
<ellipse fill="#9d9c9d" cx="0.00" cy="0.00" transform="translate(174.22,79.36) rotate(113.9)" rx="3.22" ry="0.50"/>
<path fill="#9d9c9d" d="
  M 38.30 83.74
  A 0.14 0.14 0.0 0 1 38.56 83.85
  Q 37.78 86.40 36.14 88.50
  A 0.24 0.24 0.0 0 1 35.74 88.23
  L 38.30 83.74
  Z"
/>
<path fill="#9d9c9d" d="
  M 170.75 86.58
  A 1.65 1.65 0.0 0 0 173.65 86.96
  Q 175.08 84.91 178.51 85.42
  Q 187.71 86.77 196.81 87.41
  A 0.32 0.32 0.0 0 1 196.93 88.01
  L 149.77 112.06
  A 0.34 0.34 0.0 0 1 149.29 111.67
  L 156.45 83.86
  Q 156.59 83.34 157.13 83.39
  L 169.46 84.60
  Q 170.06 84.65 170.26 85.21
  L 170.75 86.58
  Z
  M 169.07 85.88
  A 0.42 0.42 0.0 0 0 168.77 85.21
  L 157.48 84.35
  A 0.42 0.42 0.0 0 0 157.04 84.66
  L 150.73 108.99
  A 0.42 0.42 0.0 0 0 151.48 109.35
  L 169.07 85.88
  Z
  M 160.14 101.06
  A 0.38 0.38 0.0 0 1 160.25 100.82
  Q 165.53 95.70 170.37 90.08
  C 171.30 89.00 171.15 87.90 170.24 86.94
  Q 169.85 86.52 169.48 86.96
  Q 164.66 92.62 160.28 98.63
  C 158.10 101.60 156.89 105.63 153.20 108.53
  Q 152.85 108.80 153.22 109.06
  Q 153.37 109.16 153.58 109.20
  Q 153.88 109.26 154.29 109.05
  Q 174.11 98.79 194.12 88.67
  A 0.41 0.41 0.0 0 0 193.97 87.89
  L 176.59 86.35
  Q 176.03 86.30 175.62 86.69
  Q 167.94 93.91 160.74 101.47
  Q 160.05 102.20 160.14 101.06
  Z"
/>
<path fill="#ffffff" d="
  M 169.07 85.88
  L 151.48 109.35
  A 0.42 0.42 0.0 0 1 150.73 108.99
  L 157.04 84.66
  A 0.42 0.42 0.0 0 1 157.48 84.35
  L 168.77 85.21
  A 0.42 0.42 0.0 0 1 169.07 85.88
  Z"
/>
<ellipse fill="#9d9c9d" cx="0.00" cy="0.00" transform="translate(305.37,89.24) rotate(86.1)" rx="3.39" ry="0.48"/>
<path fill="#ffffff" d="
  M 160.14 101.06
  Q 160.05 102.20 160.74 101.47
  Q 167.94 93.91 175.62 86.69
  Q 176.03 86.30 176.59 86.35
  L 193.97 87.89
  A 0.41 0.41 0.0 0 1 194.12 88.67
  Q 174.11 98.79 154.29 109.05
  Q 153.88 109.26 153.58 109.20
  Q 153.37 109.16 153.22 109.06
  Q 152.85 108.80 153.20 108.53
  C 156.89 105.63 158.10 101.60 160.28 98.63
  Q 164.66 92.62 169.48 86.96
  Q 169.85 86.52 170.24 86.94
  C 171.15 87.90 171.30 89.00 170.37 90.08
  Q 165.53 95.70 160.25 100.82
  A 0.38 0.38 0.0 0 0 160.14 101.06
  Z"
/>
<ellipse fill="#9d9c9d" cx="0.00" cy="0.00" transform="translate(28.88,94.21) rotate(-26.8)" rx="3.05" ry="0.42"/>
<ellipse fill="#9d9c9d" cx="0.00" cy="0.00" transform="translate(17.81,97.92) rotate(-8.3)" rx="3.36" ry="0.48"/>
<ellipse fill="#9d9c9d" cx="0.00" cy="0.00" transform="translate(7.64,99.09) rotate(-8.9)" rx="1.70" ry="0.60"/>
<rect fill="#9d9c9d" x="-0.43" y="-3.06" transform="translate(304.35,101.47) rotate(20.3)" width="0.86" height="6.12" rx="0.36"/>
<rect fill="#9d9c9d" x="-2.96" y="-0.44" transform="translate(297.36,110.73) rotate(-36.8)" width="5.92" height="0.88" rx="0.26"/>
<ellipse fill="#9d9c9d" cx="0.00" cy="0.00" transform="translate(286.19,115.48) rotate(-10.1)" rx="3.08" ry="0.54"/>
<ellipse fill="#9d9c9d" cx="0.00" cy="0.00" transform="translate(261.94,116.54) rotate(-2.6)" rx="2.93" ry="0.51"/>
<rect fill="#9d9c9d" x="-2.96" y="-0.49" transform="translate(274.24,116.49) rotate(-0.5)" width="5.92" height="0.98" rx="0.46"/>
<ellipse fill="#9d9c9d" cx="0.00" cy="0.00" transform="translate(250.00,117.61) rotate(-9.5)" rx="2.94" ry="0.49"/>
<rect fill="#9d9c9d" x="-2.81" y="-0.49" transform="translate(238.36,121.04) rotate(-23.0)" width="5.62" height="0.98" rx="0.36"/>
<ellipse fill="#9d9c9d" cx="0.00" cy="0.00" transform="translate(229.15,126.37) rotate(-32.9)" rx="1.70" ry="0.50"/>
<path fill="#9d9c9d" d="
  M 166.77 137.75
  L 172.19 137.76
  A 0.18 0.18 0.0 0 1 172.22 138.11
  Q 169.61 138.63 166.74 138.13
  A 0.19 0.19 0.0 0 1 166.77 137.75
  Z"
/>
<ellipse fill="#9d9c9d" cx="0.00" cy="0.00" transform="translate(157.99,139.14) rotate(-9.9)" rx="3.04" ry="0.30"/>
<ellipse fill="#9d9c9d" cx="0.00" cy="0.00" transform="translate(180.23,140.01) rotate(22.5)" rx="3.13" ry="0.41"/>
<ellipse fill="#9d9c9d" cx="0.00" cy="0.00" transform="translate(147.19,141.81) rotate(-14.5)" rx="3.03" ry="0.39"/>
<ellipse fill="#9d9c9d" cx="0.00" cy="0.00" transform="translate(135.96,145.65) rotate(-20.3)" rx="2.99" ry="0.44"/>
<path fill="#9d9c9d" d="
  M 188.32 146.68
  Q 187.76 146.20 187.31 145.62
  A 0.44 0.44 0.0 0 1 187.97 145.05
  Q 189.71 146.91 190.63 149.29
  Q 190.99 150.22 190.31 149.49
  Q 189.49 148.62 188.98 147.54
  A 2.64 2.62 -82.7 0 0 188.32 146.68
  Z"
/>
<ellipse fill="#9d9c9d" cx="0.00" cy="0.00" transform="translate(125.34,150.09) rotate(-24.6)" rx="2.98" ry="0.46"/>
<ellipse fill="#9d9c9d" cx="0.00" cy="0.00" transform="translate(194.98,150.12) rotate(3.1)" rx="3.29" ry="0.41"/>
<path fill="#9d9c9d" d="
  M 181.21 151.43
  Q 180.98 151.55 180.67 151.48
  A 0.26 0.25 -47.7 0 1 180.65 150.99
  Q 183.45 150.02 186.42 150.27
  Q 186.75 150.30 186.49 150.50
  Q 186.39 150.58 186.27 150.65
  C 185.82 150.89 182.43 151.08 181.44 151.33
  Q 181.32 151.36 181.21 151.43
  Z"
/>
<ellipse fill="#9d9c9d" cx="0.00" cy="0.00" transform="translate(206.33,151.90) rotate(15.7)" rx="3.13" ry="0.51"/>
<ellipse fill="#9d9c9d" cx="0.00" cy="0.00" transform="translate(172.94,154.27) rotate(-25.6)" rx="2.85" ry="0.24"/>
<ellipse fill="#9d9c9d" cx="0.00" cy="0.00" transform="translate(114.87,154.79) rotate(-23.1)" rx="3.04" ry="0.53"/>
<ellipse fill="#9d9c9d" cx="0.00" cy="0.00" transform="translate(217.17,155.12) rotate(21.8)" rx="3.02" ry="0.53"/>
<path fill="#9d9c9d" d="
  M 245.74 171.48
  L 245.56 172.43
  A 1.28 1.28 0.0 0 0 246.92 173.94
  L 268.50 172.31
  A 0.57 0.53 78.5 0 0 268.95 171.57
  Q 268.91 171.45 268.68 171.29
  Q 268.52 171.18 268.31 171.16
  Q 257.79 170.49 247.23 170.51
  A 1.23 1.23 0.0 0 0 246.36 170.87
  L 245.74 171.48
  Q 246.14 170.58 245.76 170.56
  Q 239.86 170.17 233.90 169.75
  A 0.40 0.40 0.0 0 1 233.73 169.00
  L 236.64 167.32
  Q 237.33 166.92 236.70 166.43
  L 234.94 165.06
  A 0.32 0.32 0.0 0 1 234.95 164.54
  Q 235.14 164.41 235.36 164.42
  Q 235.50 164.43 235.66 164.56
  Q 236.95 165.61 238.45 166.42
  L 239.58 167.95
  A 0.25 0.25 0.0 0 1 239.23 168.29
  L 238.11 167.40
  A 0.70 0.69 -43.4 0 0 237.27 167.38
  L 235.23 168.84
  Q 234.73 169.20 235.34 169.27
  C 240.64 169.86 247.37 169.77 251.20 169.92
  Q 267.50 170.55 284.08 170.85
  A 0.32 0.31 52.5 0 0 284.16 170.23
  C 272.16 167.19 260.20 163.92 247.97 161.40
  Q 247.50 161.31 247.10 161.04
  Q 246.12 160.40 245.06 161.05
  Q 243.30 162.11 238.45 166.42
  C 238.72 164.63 242.88 162.06 244.21 161.14
  C 247.26 159.01 249.82 156.05 252.98 153.81
  A 0.91 0.91 0.0 0 1 253.90 153.75
  Q 266.76 160.19 279.71 166.24
  Q 279.97 166.37 279.98 166.66
  Q 279.98 167.14 279.56 166.93
  L 253.98 154.47
  A 1.16 1.15 -53.1 0 0 252.70 154.66
  L 247.13 159.76
  A 0.61 0.60 -60.8 0 0 247.42 160.80
  L 249.51 161.19
  A 0.42 0.42 0.0 0 0 250.00 160.78
  Q 250.00 160.65 250.00 160.52
  A 0.13 0.12 -80.3 0 0 249.92 160.40
  L 249.16 160.05
  A 0.26 0.26 0.0 0 1 249.34 159.57
  Q 263.21 163.62 277.15 167.40
  C 280.55 168.33 285.50 168.39 289.56 171.16
  A 0.21 0.21 0.0 0 1 289.45 171.54
  L 246.09 174.62
  Q 245.56 174.66 245.16 174.30
  L 243.60 172.91
  Q 243.28 172.62 243.67 172.44
  L 245.74 171.48
  Z"
/>
<path fill="#9d9c9d" d="
  M 190.97 155.31
  A 0.25 0.25 0.0 0 1 191.47 155.31
  Q 191.67 158.54 189.80 161.21
  A 0.15 0.15 0.0 0 1 189.55 161.06
  Q 190.83 158.33 190.97 155.31
  Z"
/>
<ellipse fill="#9d9c9d" cx="0.00" cy="0.00" transform="translate(104.41,159.35) rotate(-24.0)" rx="2.84" ry="0.47"/>
<ellipse fill="#9d9c9d" cx="0.00" cy="0.00" transform="translate(227.83,160.00) rotate(28.8)" rx="3.10" ry="0.50"/>
<ellipse fill="#9d9c9d" cx="0.00" cy="0.00" transform="translate(164.13,161.90) rotate(125.6)" rx="3.05" ry="0.22"/>
<path fill="#ffffff" d="
  M 238.45 166.42
  Q 243.30 162.11 245.06 161.05
  Q 246.12 160.40 247.10 161.04
  Q 247.50 161.31 247.97 161.40
  C 260.20 163.92 272.16 167.19 284.16 170.23
  A 0.32 0.31 52.5 0 1 284.08 170.85
  Q 267.50 170.55 251.20 169.92
  C 247.37 169.77 240.64 169.86 235.34 169.27
  Q 234.73 169.20 235.23 168.84
  L 237.27 167.38
  A 0.70 0.69 -43.4 0 1 238.11 167.40
  L 239.23 168.29
  A 0.25 0.25 0.0 0 0 239.58 167.95
  L 238.45 166.42
  Z"
/>
<ellipse fill="#9d9c9d" cx="0.00" cy="0.00" transform="translate(93.86,163.83) rotate(-20.1)" rx="2.96" ry="0.50"/>
<path fill="#9d9c9d" d="
  M 186.53 165.52
  A 0.15 0.15 0.0 0 1 186.76 165.70
  Q 185.46 167.89 183.34 169.35
  Q 182.99 169.60 182.69 169.48
  Q 182.47 169.39 182.64 169.23
  L 186.53 165.52
  Z"
/>
<ellipse fill="#9d9c9d" cx="0.00" cy="0.00" transform="translate(82.97,167.67) rotate(-19.9)" rx="2.96" ry="0.47"/>
<path fill="#9d9c9d" d="
  M 166.85 173.60
  A 0.22 0.22 0.0 0 1 166.57 173.94
  Q 164.12 172.22 162.53 169.70
  A 0.14 0.14 0.0 0 1 162.74 169.53
  L 166.85 173.60
  Z"
/>
<ellipse fill="#9d9c9d" cx="0.00" cy="0.00" transform="translate(72.15,170.67) rotate(-11.3)" rx="2.84" ry="0.52"/>
<path fill="#ffffff" d="
  M 245.74 171.48
  L 246.36 170.87
  A 1.23 1.23 0.0 0 1 247.23 170.51
  Q 257.79 170.49 268.31 171.16
  Q 268.52 171.18 268.68 171.29
  Q 268.91 171.45 268.95 171.57
  A 0.57 0.53 78.5 0 1 268.50 172.31
  L 246.92 173.94
  A 1.28 1.28 0.0 0 1 245.56 172.43
  L 245.74 171.48
  Z"
/>
<ellipse fill="#9d9c9d" cx="0.00" cy="0.00" transform="translate(39.19,171.40) rotate(5.4)" rx="1.80" ry="0.60"/>
<ellipse fill="#9d9c9d" cx="0.00" cy="0.00" transform="translate(49.07,172.54) rotate(1.8)" rx="2.85" ry="0.52"/>
<ellipse fill="#9d9c9d" cx="0.00" cy="0.00" transform="translate(60.55,172.41) rotate(-3.0)" rx="2.78" ry="0.45"/>
<ellipse fill="#9d9c9d" cx="0.00" cy="0.00" transform="translate(175.52,173.72) rotate(-17.6)" rx="3.22" ry="0.37"/>
</svg>
